<svg width="255" height="45" viewBox="0 0 255 45" fill="none" xmlns="http://www.w3.org/2000/svg">
  <path
    d="M8.05726 28.2562L6.38383 31.3321H0L10.0406 13.2461H17.3541L27.2707 31.3936H20.9489L19.2754 28.3178H8.05726V28.2562ZM10.1026 24.3807H17.1682L13.6354 17.8598L10.1026 24.3807Z"
    fill="#EA2227"/>
  <path
    d="M31.6712 25.5495L29.44 21.5509H36.3196C36.9394 21.5509 37.4353 21.3663 37.8691 20.9972C38.303 20.6281 38.5509 20.136 38.5509 19.5208C38.5509 19.0287 38.303 18.5981 37.8691 18.229C37.4353 17.8598 36.9394 17.6753 36.3816 17.6753H27.9525V31.2706L22.2504 20.8127V13.2461H36.9394C38.241 13.2461 39.2946 13.3076 40.1004 13.4921C40.9061 13.6767 41.6498 13.9843 42.2076 14.4149C42.7655 14.8455 43.1373 15.3992 43.3852 16.1374C43.6332 16.8756 43.7571 17.7983 43.7571 18.9056C43.7571 21.1818 43.3233 22.9043 42.4556 23.95C41.5879 25.0574 40.1004 25.5495 37.9931 25.5495H31.6712Z"
    fill="url(#paint0_linear_287_2643)"/>
  <path
    d="M45.4305 17.8599C45.4305 17.1217 45.4925 16.5065 45.6785 16.0143C45.8644 15.5222 46.1743 15.0916 46.6701 14.661C47.104 14.2919 47.5378 13.9843 48.0337 13.7382C48.5295 13.5537 49.1493 13.3691 49.893 13.2461C50.6368 13.123 51.5664 13.123 52.6201 13.0615C53.6118 13.0615 55.2852 13.0615 57.4544 13.0615C59.6857 13.0615 61.2971 13.0615 62.3508 13.123C63.4044 13.123 64.2721 13.1846 65.0159 13.3076C65.7596 13.4306 66.3794 13.5537 66.8752 13.7997C67.3711 13.9843 67.8049 14.2919 68.2388 14.7225C68.6726 15.1531 69.0445 15.5837 69.1684 16.0759C69.3544 16.568 69.4164 17.1832 69.4164 17.9214V20.4436C69.4164 22.8427 69.4164 24.8728 69.4164 26.6568C69.4164 27.395 69.3544 28.0102 69.1684 28.5638C68.9825 29.056 68.6726 29.5481 68.2388 29.9172C67.8669 30.2863 67.3711 30.5939 66.8752 30.7785C66.3794 30.963 65.7596 31.1476 65.0159 31.2706C64.2721 31.3936 63.3424 31.4551 62.2268 31.4551C61.1112 31.5167 59.4997 31.5167 57.3925 31.5167C55.2852 31.5167 53.6737 31.5167 52.6201 31.4551C51.5045 31.3936 50.6368 31.3321 49.831 31.2706C49.0873 31.1476 48.4675 31.0245 47.9717 30.7785C47.4758 30.5939 47.042 30.2863 46.6081 29.9172C46.1743 29.4866 45.8024 29.056 45.6785 28.5638C45.4925 28.0717 45.4305 27.4565 45.4305 26.6568V17.8599ZM50.5748 25.9801C50.5748 26.3492 50.6987 26.6568 50.9467 26.7798C51.1946 26.9029 51.6284 27.0259 52.2482 27.0259C53.1159 27.0259 56.5248 27.0259 62.5987 27.0259C63.2185 27.0259 63.6523 26.9029 63.9622 26.7183C64.2721 26.5338 64.3961 26.2877 64.3961 25.9801V23.8885V18.5981C64.3961 18.1674 64.2721 17.8599 64.0242 17.7368C63.7763 17.6138 63.3424 17.4908 62.7226 17.4908C61.8549 17.4908 58.3841 17.4908 52.3102 17.4908C51.6904 17.4908 51.2566 17.6138 51.0086 17.7983C50.6987 17.9829 50.5748 18.2905 50.5748 18.5981V25.9801Z"
    fill="url(#paint1_linear_287_2643)"/>
  <path d="M89.2496 26.9644V31.3321H77.2877H71.5237H71.2138V13.2461H76.9158V27.0259H89.2496V26.9644Z"
        fill="url(#paint2_linear_287_2643)"/>
  <path d="M108.525 26.9644V31.3321H96.5632H90.7991H90.4892V13.2461H96.1913V27.0259H108.525V26.9644Z"
        fill="url(#paint3_linear_287_2643)"/>
  <path
    d="M110.013 17.8599C110.013 17.1216 110.075 16.5065 110.26 16.0143C110.446 15.5222 110.756 15.0916 111.19 14.661C111.624 14.2919 112.058 13.9843 112.554 13.7382C113.05 13.5537 113.669 13.3691 114.413 13.2461C115.157 13.123 116.087 13.123 117.14 13.0615C118.194 13.0615 119.805 13 122.036 13C124.268 13 125.879 13 126.933 13.0615C127.986 13.0615 128.854 13.123 129.598 13.2461C130.342 13.3691 130.961 13.4921 131.457 13.7382C131.953 13.9228 132.387 14.2303 132.821 14.661C133.255 15.0916 133.627 15.5222 133.75 16.0143C133.936 16.5065 133.998 17.1216 133.998 17.8599V20.4436C133.998 22.8427 133.998 24.8728 133.998 26.6568C133.998 27.395 133.936 28.0102 133.75 28.5638C133.565 29.056 133.255 29.5481 132.821 29.9172C132.449 30.2863 131.953 30.5939 131.457 30.7785C130.961 30.963 130.342 31.1476 129.598 31.2706C128.854 31.3936 127.924 31.4551 126.809 31.4551C125.693 31.4551 124.144 31.5167 122.036 31.5167C119.929 31.5167 118.38 31.5167 117.264 31.4551C116.21 31.3936 115.281 31.3321 114.475 31.2706C113.731 31.1476 113.112 31.0245 112.616 30.7785C112.12 30.5939 111.686 30.2863 111.252 29.9172C110.818 29.4866 110.446 29.056 110.322 28.5638C110.137 28.0717 110.075 27.4565 110.075 26.6568V17.8599H110.013ZM115.157 25.9801C115.157 26.3492 115.281 26.6568 115.529 26.7798C115.777 26.9029 116.21 27.0259 116.83 27.0259C117.698 27.0259 121.107 27.0259 127.181 27.0259C127.801 27.0259 128.234 26.9029 128.544 26.7183C128.854 26.5338 128.978 26.2877 128.978 25.9801V23.8885V18.5981C128.978 18.1674 128.854 17.8599 128.606 17.7368C128.358 17.6138 127.924 17.4908 127.243 17.4908C126.375 17.4908 122.904 17.4908 116.83 17.4908C116.21 17.4908 115.777 17.6138 115.529 17.7983C115.281 17.9829 115.157 18.2905 115.157 18.5981V25.9801Z"
    fill="url(#paint4_linear_287_2643)"/>
  <path d="M31.6712 25.5495L27.8905 31.3321V21.5509L31.6712 25.5495Z" fill="#FBD3D1"/>
  <path d="M29.502 21.5509H27.8905L31.6712 25.5495L29.502 21.5509Z" fill="#FDCE8F"/>
  <path d="M31.6712 25.5495H27.8905V21.5509L31.6712 25.5495Z" fill="#FFF9C1"/>
  <path
    d="M176.717 10.5C178.832 12.3 180.041 14.7 180.041 18C180.041 21.3 178.832 23.7 176.717 25.5C174.601 27.3 171.578 28.2 167.649 28.2H160.395V37.2H156.163V7.79997H167.649C171.578 7.79997 174.601 8.69997 176.717 10.5ZM173.694 22.8C175.205 21.6 175.81 20.1 175.81 18C175.81 15.9 175.205 14.4 173.694 13.2C172.183 12 170.369 11.4 167.649 11.4H160.395V24.6H167.649C170.369 24.6 172.183 24 173.694 22.8Z"
    fill="#8C8C8C"/>
  <path
    d="M206.035 36.9L199.688 27.9C198.781 27.9 198.177 27.9 197.874 27.9H190.62V36.9H186.389V7.79997H197.874C201.804 7.79997 204.826 8.69997 206.942 10.5C209.058 12.3 210.267 14.7 210.267 18C210.267 20.4 209.662 22.2 208.453 23.7C207.244 25.2 205.733 26.4 203.617 27.3L210.569 37.2H206.035V36.9ZM203.617 22.8C205.128 21.6 205.733 20.1 205.733 18C205.733 15.9 205.128 14.4 203.617 13.2C202.106 12 200.292 11.4 197.572 11.4H190.318V24.6H197.572C200.292 24.6 202.408 24 203.617 22.8Z"
    fill="#8C8C8C"/>
  <path
    d="M222.054 35.4C219.636 34.2 217.823 32.4 216.312 30C214.8 27.6 214.196 25.2 214.196 22.2C214.196 19.2 214.8 16.8 216.312 14.4C217.823 12 219.636 10.2 222.054 8.99998C224.472 7.79998 227.193 7.19998 230.215 7.19998C233.238 7.19998 235.958 7.79998 238.376 8.99998C240.794 10.2 242.608 12 244.119 14.4C245.328 16.8 246.235 19.2 246.235 22.2C246.235 24.9 245.63 27.6 244.119 30C242.91 32.4 240.794 34.2 238.376 35.4C235.958 36.6 233.238 37.2 230.215 37.2C227.193 37.2 224.472 36.6 222.054 35.4ZM235.958 32.1C237.772 31.2 238.981 29.7 240.19 28.2C241.096 26.4 241.701 24.6 241.701 22.5C241.701 20.4 241.096 18.6 240.19 16.8C239.283 15 237.772 13.8 235.958 12.9C234.145 12 232.331 11.4 230.215 11.4C228.1 11.4 225.984 12 224.472 12.9C222.659 13.8 221.45 15.3 220.241 16.8C219.334 18.6 218.73 20.4 218.73 22.5C218.73 24.6 219.334 26.4 220.241 28.2C221.148 30 222.659 31.2 224.472 32.1C226.286 33 228.1 33.6 230.215 33.6C232.331 33.6 234.447 33 235.958 32.1Z"
    fill="#8C8C8C"/>
  <path
    d="M245.328 3C248.955 3 251.977 6 251.977 9.6V35.4C251.977 39 248.955 42 245.328 42H156.768C153.141 42 150.119 39 150.119 35.4V9.6C150.119 6 153.141 3 156.768 3H245.328ZM245.328 0H156.768C151.328 0 147.096 4.2 147.096 9.6V35.4C147.096 40.8 151.328 45 156.768 45H245.328C250.768 45 255 40.8 255 35.4V9.6C255 4.2 250.768 0 245.328 0Z"
    fill="#8C8C8C"/>
  <defs>
    <linearGradient id="paint0_linear_287_2643" x1="21.8457" y1="22.289" x2="133.944" y2="22.289"
                    gradientUnits="userSpaceOnUse">
      <stop stop-color="#FFF58D"/>
      <stop offset="0.00159779" stop-color="#F9F38D"/>
      <stop offset="0.0148888" stop-color="#C7E38F"/>
      <stop offset="0.0280608" stop-color="#9FD690"/>
      <stop offset="0.0408766" stop-color="#7FCB91"/>
      <stop offset="0.0532334" stop-color="#68C491"/>
      <stop offset="0.0649264" stop-color="#5BC092"/>
      <stop offset="0.0752688" stop-color="#56BE92"/>
      <stop offset="0.3061" stop-color="#48C7F4"/>
      <stop offset="0.9847" stop-color="#BA529E"/>
      <stop offset="1" stop-color="#BA529E"/>
    </linearGradient>
    <linearGradient id="paint1_linear_287_2643" x1="21.8458" y1="22.2891" x2="133.945" y2="22.2891"
                    gradientUnits="userSpaceOnUse">
      <stop stop-color="#FFF58D"/>
      <stop offset="0.00159779" stop-color="#F9F38D"/>
      <stop offset="0.0148888" stop-color="#C7E38F"/>
      <stop offset="0.0280608" stop-color="#9FD690"/>
      <stop offset="0.0408766" stop-color="#7FCB91"/>
      <stop offset="0.0532334" stop-color="#68C491"/>
      <stop offset="0.0649264" stop-color="#5BC092"/>
      <stop offset="0.0752688" stop-color="#56BE92"/>
      <stop offset="0.3061" stop-color="#48C7F4"/>
      <stop offset="0.9847" stop-color="#BA529E"/>
      <stop offset="1" stop-color="#BA529E"/>
    </linearGradient>
    <linearGradient id="paint2_linear_287_2643" x1="21.845" y1="22.289" x2="133.945" y2="22.289"
                    gradientUnits="userSpaceOnUse">
      <stop stop-color="#FFF58D"/>
      <stop offset="0.00159779" stop-color="#F9F38D"/>
      <stop offset="0.0148888" stop-color="#C7E38F"/>
      <stop offset="0.0280608" stop-color="#9FD690"/>
      <stop offset="0.0408766" stop-color="#7FCB91"/>
      <stop offset="0.0532334" stop-color="#68C491"/>
      <stop offset="0.0649264" stop-color="#5BC092"/>
      <stop offset="0.0752688" stop-color="#56BE92"/>
      <stop offset="0.3061" stop-color="#48C7F4"/>
      <stop offset="0.9847" stop-color="#BA529E"/>
      <stop offset="1" stop-color="#BA529E"/>
    </linearGradient>
    <linearGradient id="paint3_linear_287_2643" x1="21.8457" y1="22.289" x2="133.945" y2="22.289"
                    gradientUnits="userSpaceOnUse">
      <stop stop-color="#FFF58D"/>
      <stop offset="0.00159779" stop-color="#F9F38D"/>
      <stop offset="0.0148888" stop-color="#C7E38F"/>
      <stop offset="0.0280608" stop-color="#9FD690"/>
      <stop offset="0.0408766" stop-color="#7FCB91"/>
      <stop offset="0.0532334" stop-color="#68C491"/>
      <stop offset="0.0649264" stop-color="#5BC092"/>
      <stop offset="0.0752688" stop-color="#56BE92"/>
      <stop offset="0.3061" stop-color="#48C7F4"/>
      <stop offset="0.9847" stop-color="#BA529E"/>
      <stop offset="1" stop-color="#BA529E"/>
    </linearGradient>
    <linearGradient id="paint4_linear_287_2643" x1="21.8424" y1="22.2891" x2="133.945" y2="22.2891"
                    gradientUnits="userSpaceOnUse">
      <stop stop-color="#FFF58D"/>
      <stop offset="0.00159779" stop-color="#F9F38D"/>
      <stop offset="0.0148888" stop-color="#C7E38F"/>
      <stop offset="0.0280608" stop-color="#9FD690"/>
      <stop offset="0.0408766" stop-color="#7FCB91"/>
      <stop offset="0.0532334" stop-color="#68C491"/>
      <stop offset="0.0649264" stop-color="#5BC092"/>
      <stop offset="0.0752688" stop-color="#56BE92"/>
      <stop offset="0.3061" stop-color="#48C7F4"/>
      <stop offset="0.9847" stop-color="#BA529E"/>
      <stop offset="1" stop-color="#BA529E"/>
    </linearGradient>
  </defs>
</svg>
