<svg width="489.242" height="489.242" xmlns="http://www.w3.org/2000/svg" xml:space="preserve" version="1.1" fill="#000000">

 <g>
   <g id="svg_1">
   <g id="svg_2">
    <path id="svg_3" d="m416.321,171.943c0,-97.8 -82.2,-176.9 -181,-171.7c-89.5,5.2 -160.3,79.1 -162.4,168.6c0,44.7 16.6,86.3 45.8,118.6c47.7,51.1 41.6,110.3 41.6,110.3c0,11.4 9.4,20.8 20.8,20.8l126.9,0c11.4,0 20.8,-9.4 21.8,-20.8c0,0 -7,-57.7 40.6,-109.2c29.2,-31.3 45.9,-72.9 45.9,-116.6zm-128,206l-87.4,0c-2.1,-42.7 -20.8,-84.3 -51,-116.5c-22.9,-25 -34.3,-57.2 -34.3,-90.5c1,-68.7 54.1,-124.8 122.8,-129c74.9,-4.2 137.3,56.2 137.3,130c0,32.3 -12.5,64.5 -35.4,88.4c-31.2,33.3 -49.9,74.9 -52,117.6z"/>
    <path id="svg_4" d="m281.021,447.643l-73.9,0c-11.4,0 -20.8,9.4 -20.8,20.8s9.4,20.8 20.8,20.8l73.9,0c11.4,0 20.8,-9.4 20.8,-20.8c0,-11.4 -9.3,-20.8 -20.8,-20.8z"/>
   </g>
  </g>
  <g stroke="null" id="svg_19">
   <g stroke="null" id="svg_13">
    <ellipse stroke="#000" ry="59.87473" rx="59.07104" id="svg_10" cy="205.61493" cx="303.76451" stroke-width="0" fill="#0000bf"/>
    <text stroke="#000" transform="matrix(4.51114 0 0 3.90387 -383.902 -336.511)" font-weight="bold" xml:space="preserve" text-anchor="start" font-family="Noto Sans JP" font-size="24" id="svg_12" y="146.9502" x="145.02891" stroke-width="0" fill="#000000">B</text>
   </g>
   <g stroke="null" id="svg_17">
    <ellipse stroke="#000" ry="59.02438" rx="58.23211" id="svg_9" cy="204.57987" cx="184.13637" stroke-width="0" fill="#007f00"/>
    <text stroke="#000" transform="matrix(4.21533 0 0 3.64788 -467.564 -305.062)" font-weight="bold" xml:space="preserve" text-anchor="start" font-family="Noto Sans JP" font-size="24" id="svg_11" y="147.40565" x="144.96753" stroke-width="0" fill="#000000">G</text>
   </g>
   <g stroke="null" id="svg_18">
    <ellipse stroke="#000" ry="59.02438" rx="58.23211" id="svg_8" cy="101.93774" cx="242.66724" stroke-width="0" fill="#ff0000"/>
    <text stroke="#000" transform="matrix(4.21533 0 0 3.64788 -407.839 -412.34)" font-weight="bold" xml:space="preserve" text-anchor="start" font-family="Noto Sans JP" font-size="24" id="svg_5" y="147.69421" x="146.35243" stroke-width="0" fill="#000000">R</text>
   </g>
  </g>
 </g>
</svg>
