<svg width="200px" height="200px" version="1.1" id="Capa_1" xmlns="http://www.w3.org/2000/svg" xmlns:xlink="http://www.w3.org/1999/xlink" x="0px" y="0px"
     viewBox="0 0 500.002 500.002" style="enable-background:new 0 0 80.002 80.002;" xml:space="preserve" >

 <g>
   <g id="svg_1">
   <g id="svg_2">
    <path id="svg_3" d="m416.321,171.943c0,-97.8 -82.2,-176.9 -181,-171.7c-89.5,5.2 -160.3,79.1 -162.4,168.6c0,44.7 16.6,86.3 45.8,118.6c47.7,51.1 41.6,110.3 41.6,110.3c0,11.4 9.4,20.8 20.8,20.8l126.9,0c11.4,0 20.8,-9.4 21.8,-20.8c0,0 -7,-57.7 40.6,-109.2c29.2,-31.3 45.9,-72.9 45.9,-116.6zm-128,206l-87.4,0c-2.1,-42.7 -20.8,-84.3 -51,-116.5c-22.9,-25 -34.3,-57.2 -34.3,-90.5c1,-68.7 54.1,-124.8 122.8,-129c74.9,-4.2 137.3,56.2 137.3,130c0,32.3 -12.5,64.5 -35.4,88.4c-31.2,33.3 -49.9,74.9 -52,117.6z"/>
    <path id="svg_4" d="m281.021,447.643l-73.9,0c-11.4,0 -20.8,9.4 -20.8,20.8s9.4,20.8 20.8,20.8l73.9,0c11.4,0 20.8,-9.4 20.8,-20.8c0,-11.4 -9.3,-20.8 -20.8,-20.8z"/>
   </g>
  </g>
  <g stroke="null" id="svg_19">
   <g stroke="null" id="svg_13">
    <ellipse stroke="#000" ry="59.87473" rx="59.07104" id="svg_10" cy="205.61493" cx="303.76451" stroke-width="0" fill="#0000bf"/>
    <text stroke="#000" transform="matrix(4.51114 0 0 3.90387 -383.902 -336.511)" font-weight="bold" xml:space="preserve" text-anchor="start" font-family="Noto Sans JP" font-size="24" id="svg_12" y="146.9502" x="145.02891" stroke-width="0" fill="#000000">B</text>
   </g>
   <g stroke="null" id="svg_17">
    <ellipse stroke="#000" ry="59.02438" rx="58.23211" id="svg_9" cy="204.57987" cx="184.13637" stroke-width="0" fill="#007f00"/>
    <text stroke="#000" transform="matrix(4.21533 0 0 3.64788 -467.564 -305.062)" font-weight="bold" xml:space="preserve" text-anchor="start" font-family="Noto Sans JP" font-size="24" id="svg_11" y="147.40565" x="144.96753" stroke-width="0" fill="#000000">G</text>
   </g>
   <g stroke="null" id="svg_18">
    <ellipse stroke="#000" ry="59.02438" rx="58.23211" id="svg_8" cy="101.93774" cx="242.66724" stroke-width="0" fill="#ff0000"/>
    <text stroke="#000" transform="matrix(4.21533 0 0 3.64788 -407.839 -412.34)" font-weight="bold" xml:space="preserve" text-anchor="start" font-family="Noto Sans JP" font-size="24" id="svg_5" y="147.69421" x="146.35243" stroke-width="0" fill="#000000">R</text>
   </g>
  </g>
  <g stroke="null">
   <circle stroke="null" fill="#006DF0" r="74.44144" cy="196.9004" cx="292.8471"/>
   <circle stroke="null" fill="#D80027" r="74.44144" cy="115.7045" cx="245.50894"/>
   <circle stroke="null" fill="#91DC5A" r="74.44144" cy="196.9004" cx="198.61712"/>
   <path stroke="null" fill="#FFFFFF" d="m313.6437,129.23762c0,0 -47.67054,-6.51229 -67.91159,10.02651c-20.3607,-16.63756 -67.43676,-10.02651 -67.43676,-10.02651s16.32892,46.87995 40.99823,56.1586c-4.01848,25.70729 26.20301,58.88744 26.439,58.88744c0.23694,0 30.49784,-33.29649 26.41051,-59.05648c24.49742,-9.39451 41.5006,-55.98956 41.5006,-55.98956z"/>
   <path stroke="null" fill="#EA348B" d="m245.73211,139.26413c6.78579,5.54506 12.7036,12.38689 17.34553,20.4267c4.69512,8.13289 7.67705,16.78381 9.06545,25.53635c24.49695,-9.39498 42.76602,-31.36014 46.90559,-58.00284c-25.08573,-9.46431 -53.076,-4.49901 -73.31657,12.03978z"/>
   <path stroke="null" fill="#99EFF2" d="m272.14405,185.22718c-8.27438,3.17329 -17.25674,4.91734 -26.64792,4.91734c-9.22262,0 -18.05066,-1.6809 -26.20206,-4.74782c-4.01848,25.70729 5.73594,52.26499 26.439,69.15089c20.74864,-16.92293 30.49832,-43.56041 26.41098,-69.32041z"/>
   <path stroke="null" fill="#FFDA44" d="m219.29359,185.39622c1.37701,-8.80999 4.36748,-17.52027 9.09394,-25.70539c4.64099,-8.03982 10.55927,-14.88069 17.34506,-20.4267c-20.3607,-16.63756 -48.56227,-21.5644 -73.76196,-11.87217c4.21554,26.72865 22.65413,48.72561 47.32296,58.00426z"/>
   <path stroke="null" fill="#FFFFFF" d="m245.73211,139.26413c-6.78579,5.54506 -12.70312,12.38689 -17.34506,20.4267c-4.72551,8.18607 -7.71646,16.89634 -9.09394,25.70539c8.1514,3.06645 16.97944,4.74782 26.20206,4.74782c9.39118,0 18.37354,-1.7431 26.64792,-4.91734c-1.38935,-8.75301 -4.37033,-17.40394 -9.06545,-25.53635c-4.64099,-8.03934 -10.55927,-14.88022 -17.34553,-20.42623z"/>
   <g stroke="null"/>
   <g stroke="null"/>
   <g stroke="null"/>
   <g stroke="null"/>
   <g stroke="null"/>
   <g stroke="null"/>
   <g stroke="null"/>
   <g stroke="null"/>
   <g stroke="null"/>
   <g stroke="null"/>
   <g stroke="null"/>
   <g stroke="null"/>
   <g stroke="null"/>
   <g stroke="null"/>
   <g stroke="null"/>
  </g>
 </g>
</svg>
