<svg width="200px" height="200px"
     version="1.1" id="Capa_1"
     xmlns="http://www.w3.org/2000/svg"
     xmlns:xlink="http://www.w3.org/1999/xlink" x="0px" y="0px"
     viewBox="0 0 500.002 500.002"
     style="enable-background:new 0 0 80.002 80.002;" xml:space="preserve">
 <g class="layer">
  <title>Layer 1</title>
   <g id="svg_6">
   <g id="svg_1" transform="matrix(1 0 0 1 0 0)">
    <g id="svg_2">
     <path
       d="m269.32,219.61c0,-81.57 -63.05,-147.54 -138.83,-143.2c-68.65,4.34 -122.96,65.97 -124.57,140.61c0,37.28 12.73,71.98 35.13,98.91c36.59,42.62 31.91,91.99 31.91,91.99c0,9.51 7.21,17.35 15.95,17.35l97.34,0c8.74,0 15.95,-7.84 16.72,-17.35c0,0 -5.37,-48.12 31.14,-91.07c22.4,-26.1 35.21,-60.8 35.21,-97.25zm-98.18,171.81l-67.04,0c-1.61,-35.61 -15.95,-70.31 -39.12,-97.16c-17.57,-20.85 -26.31,-47.71 -26.31,-75.48c0.77,-57.3 41.5,-104.08 94.19,-107.59c57.45,-3.5 105.31,46.87 105.31,108.42c0,26.94 -9.59,53.79 -27.15,73.73c-23.93,27.77 -38.28,62.47 -39.89,98.08z"
       id="svg_3"/>
      <path
        d="m165.54,449.55l-56.68,0c-8.74,0 -15.95,7.84 -15.95,17.35s7.21,17.35 15.95,17.35l56.68,0c8.74,0 15.95,-7.84 15.95,-17.35c0,-9.51 -7.13,-17.35 -15.95,-17.35z"
        id="svg_4"/>
    </g>
   </g>
     <g id="svg_7">
    <path
      d="m355.64,2.86c-10.05,0 -18.09,7.95 -18.09,17.88s8.04,17.88 18.09,17.88s18.09,-7.95 18.09,-17.88s-8.04,-17.88 -18.09,-17.88m56.97,7.95a73.65,72.8 0 0 0 73.65,72.8l0,-13.21a60.29,59.59 0 0 1 -60.29,-59.59l-13.36,0m26.73,0c0,25.62 21,46.38 46.92,46.38l0,-13.31c-18.49,0 -33.46,-14.8 -33.46,-33.07l-13.46,0m26.83,0a20.1,19.86 0 0 0 20.1,19.86l0,-19.86l-20.1,0m-131.42,30.09c-1.71,0 -3.42,0.3 -5.02,0.79l-54.46,16.78l0,51.64l18.09,0l0,-36.45l21.2,-6.55l-39.29,152.25l18.09,0l28.84,-80.54l23.41,30.89l0,49.66l18.09,0l0,-63.66l-25.02,-45.09l7.33,-28.5l10.85,18.08l49.03,0l0,-17.88l-36.37,0l-20.1,-33.07c-3.01,-4.97 -8.44,-8.34 -14.67,-8.34z"
      fill="currentColor" id="svg_8"/>
   </g>
  </g>
 </g>
</svg>
