<svg viewBox="0 0 284.12 284.12" xmlns="http://www.w3.org/2000/svg"><path d="m0 0h284.12v284.12h-284.12z" fill="#414042"/><g fill="#fff"><circle cx="25.91" cy="25.91" r="11.16"/><circle cx="59.1" cy="25.91" r="11.16"/><circle cx="92.28" cy="25.91" r="11.16"/><circle cx="125.47" cy="25.91" r="11.16"/><circle cx="158.65" cy="25.91" r="11.16"/><circle cx="191.84" cy="25.91" r="11.16"/><circle cx="225.02" cy="25.91" r="11.16"/><circle cx="258.2" cy="25.91" r="11.16"/><circle cx="25.91" cy="59.1" r="11.16"/><circle cx="59.1" cy="59.1" r="11.16"/><circle cx="92.28" cy="59.1" r="11.16"/><circle cx="125.47" cy="59.1" r="11.16"/><circle cx="158.65" cy="59.1" r="11.16"/><circle cx="191.84" cy="59.1" r="11.16"/><circle cx="225.02" cy="59.1" r="11.16"/><circle cx="258.2" cy="59.1" r="11.16"/><circle cx="25.91" cy="92.28" r="11.16"/><circle cx="59.1" cy="92.28" r="11.16"/><circle cx="92.28" cy="92.28" r="11.16"/><circle cx="125.47" cy="92.28" r="11.16"/><circle cx="158.65" cy="92.28" r="11.16"/><circle cx="191.84" cy="92.28" r="11.16"/><circle cx="225.02" cy="92.28" r="11.16"/><circle cx="258.2" cy="92.28" r="11.16"/><circle cx="25.91" cy="125.47" r="11.16"/><circle cx="59.1" cy="125.47" r="11.16"/><circle cx="92.28" cy="125.47" r="11.16"/><circle cx="125.47" cy="125.47" r="11.16"/><circle cx="158.65" cy="125.47" r="11.16"/><circle cx="191.84" cy="125.47" r="11.16"/><circle cx="225.02" cy="125.47" r="11.16"/><circle cx="258.2" cy="125.47" r="11.16"/><circle cx="25.91" cy="158.65" r="11.16"/><circle cx="59.1" cy="158.65" r="11.16"/><circle cx="92.28" cy="158.65" r="11.16"/><circle cx="125.47" cy="158.65" r="11.16"/><circle cx="158.65" cy="158.65" r="11.16"/><circle cx="191.84" cy="158.65" r="11.16"/><circle cx="225.02" cy="158.65" r="11.16"/><circle cx="258.2" cy="158.65" r="11.16"/><circle cx="25.91" cy="191.84" r="11.16"/><circle cx="59.1" cy="191.84" r="11.16"/><circle cx="92.28" cy="191.84" r="11.16"/><circle cx="125.47" cy="191.84" r="11.16"/><circle cx="158.65" cy="191.84" r="11.16"/><circle cx="191.84" cy="191.84" r="11.16"/><circle cx="225.02" cy="191.84" r="11.16"/><circle cx="258.2" cy="191.84" r="11.16"/><circle cx="25.91" cy="225.02" r="11.16"/><circle cx="59.1" cy="225.02" r="11.16"/><circle cx="92.28" cy="225.02" r="11.16"/><circle cx="125.47" cy="225.02" r="11.16"/><circle cx="158.65" cy="225.02" r="11.16"/><circle cx="191.84" cy="225.02" r="11.16"/><circle cx="225.02" cy="225.02" r="11.16"/><circle cx="258.2" cy="225.02" r="11.16"/><circle cx="25.91" cy="258.2" r="11.16"/><circle cx="59.1" cy="258.2" r="11.16"/><circle cx="92.28" cy="258.2" r="11.16"/><circle cx="125.47" cy="258.2" r="11.16"/><circle cx="158.65" cy="258.2" r="11.16"/><circle cx="191.84" cy="258.2" r="11.16"/><circle cx="225.02" cy="258.2" r="11.16"/><circle cx="258.2" cy="258.2" r="11.16"/></g></svg>