<?xml version="1.0" encoding="utf-8"?>
<svg width="200px" height="200px" viewBox="0 0 100 100" xmlns="http://www.w3.org/2000/svg">
  <path d="M80,5L20,5C11.716,5,5,11.716,5,20L5,80C5,88.284,11.716,95,20,95L80,95C88.284,95,95,88.284,95,80L95,20C95,11.716,88.284,5,80,5ZM87.5,80C87.5,84.135,84.135,87.5,80,87.5L20,87.5C15.865,87.5,12.5,84.135,12.5,80L12.5,20C12.5,15.865,15.865,12.5,20,12.5L80,12.5C84.135,12.5,87.5,15.865,87.5,20L87.5,80Z" stroke="none"/>
  <path d="M 51.444 17.652 C 43.456 17.652 36.957 24.151 36.957 32.139 C 36.957 40.127 43.456 46.625 51.444 46.625 C 59.432 46.625 65.93 40.127 65.93 32.139 C 65.93 24.151 59.432 17.652 51.444 17.652 Z M 51.444 43.406 C 45.231 43.406 40.176 38.351 40.176 32.139 C 40.176 25.926 45.231 20.871 51.444 20.871 C 57.656 20.871 62.711 25.926 62.711 32.139 C 62.711 38.351 57.656 43.406 51.444 43.406 Z" stroke="none" style=""/>
  <path d="M 50.868 53.063 C 42.88 53.063 36.381 59.562 36.381 67.55 C 36.381 75.538 42.88 82.036 50.868 82.036 C 58.856 82.036 65.354 75.538 65.354 67.55 C 65.354 59.562 58.856 53.063 50.868 53.063 Z M 50.868 78.817 C 44.655 78.817 39.6 73.762 39.6 67.55 C 39.6 61.337 44.655 56.282 50.868 56.282 C 57.08 56.282 62.135 61.337 62.135 67.55 C 62.135 73.762 57.08 78.817 50.868 78.817 Z" stroke="none" style=""/>
</svg>