<?xml version="1.0" encoding="utf-8"?>
<svg width="200px" height="200px" viewBox="0 0 100 100" xmlns="http://www.w3.org/2000/svg">
  <path d="M80,5L20,5C11.716,5,5,11.716,5,20L5,80C5,88.284,11.716,95,20,95L80,95C88.284,95,95,88.284,95,80L95,20C95,11.716,88.284,5,80,5ZM87.5,80C87.5,84.135,84.135,87.5,80,87.5L20,87.5C15.865,87.5,12.5,84.135,12.5,80L12.5,20C12.5,15.865,15.865,12.5,20,12.5L80,12.5C84.135,12.5,87.5,15.865,87.5,20L87.5,80Z" stroke="none"/>
  <path d="M 32.297 14.504 C 26.746 14.504 22.23 19.091 22.23 24.729 C 22.23 30.366 26.746 34.953 32.297 34.953 C 37.847 34.953 42.363 30.366 42.363 24.729 C 42.363 19.091 37.847 14.504 32.297 14.504 Z M 32.297 32.681 C 27.979 32.681 24.467 29.113 24.467 24.729 C 24.467 20.344 27.979 16.776 32.297 16.776 C 36.613 16.776 40.126 20.344 40.126 24.729 C 40.126 29.113 36.613 32.681 32.297 32.681 Z" stroke="none" style=""/>
  <path d="M 32.395 39.34 C 26.844 39.34 22.328 43.927 22.328 49.565 C 22.328 55.202 26.844 59.789 32.395 59.789 C 37.945 59.789 42.461 55.202 42.461 49.565 C 42.461 43.927 37.945 39.34 32.395 39.34 Z M 32.395 57.517 C 28.077 57.517 24.565 53.949 24.565 49.565 C 24.565 45.18 28.077 41.612 32.395 41.612 C 36.711 41.612 40.224 45.18 40.224 49.565 C 40.224 53.949 36.711 57.517 32.395 57.517 Z" stroke="none" style=""/>
  <path d="M 32.395 65.019 C 26.844 65.019 22.328 69.606 22.328 75.244 C 22.328 80.881 26.844 85.468 32.395 85.468 C 37.945 85.468 42.461 80.881 42.461 75.244 C 42.461 69.606 37.945 65.019 32.395 65.019 Z M 32.395 83.196 C 28.077 83.196 24.565 79.628 24.565 75.244 C 24.565 70.859 28.077 67.291 32.395 67.291 C 36.711 67.291 40.224 70.859 40.224 75.244 C 40.224 79.628 36.711 83.196 32.395 83.196 Z" stroke="none" style=""/>
  <path d="M 65.765 14.599 C 60.214 14.599 55.698 19.186 55.698 24.824 C 55.698 30.461 60.214 35.048 65.765 35.048 C 71.315 35.048 75.831 30.461 75.831 24.824 C 75.831 19.186 71.315 14.599 65.765 14.599 Z M 65.765 32.776 C 61.447 32.776 57.935 29.208 57.935 24.824 C 57.935 20.439 61.447 16.871 65.765 16.871 C 70.081 16.871 73.594 20.439 73.594 24.824 C 73.594 29.208 70.081 32.776 65.765 32.776 Z" stroke="none" style=""/>
  <path d="M 65.863 39.435 C 60.312 39.435 55.796 44.022 55.796 49.66 C 55.796 55.297 60.312 59.884 65.863 59.884 C 71.413 59.884 75.929 55.297 75.929 49.66 C 75.929 44.022 71.413 39.435 65.863 39.435 Z M 65.863 57.612 C 61.545 57.612 58.033 54.044 58.033 49.66 C 58.033 45.275 61.545 41.707 65.863 41.707 C 70.179 41.707 73.692 45.275 73.692 49.66 C 73.692 54.044 70.179 57.612 65.863 57.612 Z" stroke="none" style=""/>
  <path d="M 65.863 65.114 C 60.312 65.114 55.796 69.701 55.796 75.339 C 55.796 80.976 60.312 85.563 65.863 85.563 C 71.413 85.563 75.929 80.976 75.929 75.339 C 75.929 69.701 71.413 65.114 65.863 65.114 Z M 65.863 83.291 C 61.545 83.291 58.033 79.723 58.033 75.339 C 58.033 70.954 61.545 67.386 65.863 67.386 C 70.179 67.386 73.692 70.954 73.692 75.339 C 73.692 79.723 70.179 83.291 65.863 83.291 Z" stroke="none" style=""/>
</svg>