<svg width="200px" height="200px"
     xmlns="http://www.w3.org/2000/svg" viewBox="0 0 100 100">
 <g>
   <path id="svg_1" d="m79.70588,5.14706l-60,0c-8.284,0 -15,6.716 -15,15l0,60c0,8.284 6.716,15 15,15l60,0c8.284,0 15,-6.716 15,-15l0,-60c0,-8.284 -6.716,-15 -15,-15zm7.5,75c0,4.135 -3.365,7.5 -7.5,7.5l-60,0c-4.135,0 -7.5,-3.365 -7.5,-7.5l0,-60c0,-4.135 3.365,-7.5 7.5,-7.5l60,0c4.135,0 7.5,3.365 7.5,7.5l0,60z"/>
  <rect stroke="null" id="svg_4" height="53.82342" width="27.79406" y="20.73515" x="19.41183"/>
  <path fill="#ffffff" id="svg_3" d="m30.6618,64.70591l5,0l0,5l-5,0l0,-5z" opacity="undefined"/>
  <rect stroke="null" id="svg_6" height="53.82342" width="27.79406" y="21.17632" x="53.5294"/>
  <path fill="#ffffff" id="svg_7" d="m64.77938,65.14709l5,0l0,5l-5,0l0,-5z" opacity="undefined"/>
 </g>
</svg>
