<?xml version="1.0" encoding="utf-8"?>
<svg width="200px" height="200px" viewBox="0 0 100 100" xmlns="http://www.w3.org/2000/svg">
  <path d="M80,5L20,5C11.716,5,5,11.716,5,20L5,80C5,88.284,11.716,95,20,95L80,95C88.284,95,95,88.284,95,80L95,20C95,11.716,88.284,5,80,5ZM87.5,80C87.5,84.135,84.135,87.5,80,87.5L20,87.5C15.865,87.5,12.5,84.135,12.5,80L12.5,20C12.5,15.865,15.865,12.5,20,12.5L80,12.5C84.135,12.5,87.5,15.865,87.5,20L87.5,80Z" stroke="none"/>
  <path d="M 69.354 18.228 C 63.311 18.228 58.395 23.215 58.395 29.345 C 58.395 35.474 63.311 40.461 69.354 40.461 C 75.396 40.461 80.312 35.474 80.312 29.345 C 80.312 23.215 75.396 18.228 69.354 18.228 Z M 69.354 37.991 C 64.654 37.991 60.83 34.111 60.83 29.345 C 60.83 24.577 64.654 20.698 69.354 20.698 C 74.053 20.698 77.877 24.577 77.877 29.345 C 77.877 34.111 74.053 37.991 69.354 37.991 Z" stroke="none" style=""/>
  <path d="M 32.472 18.786 C 26.134 18.786 20.978 23.826 20.978 30.022 C 20.978 36.216 26.134 41.257 32.472 41.257 C 38.809 41.257 43.965 36.216 43.965 30.022 C 43.965 23.826 38.809 18.786 32.472 18.786 Z M 32.472 38.76 C 27.542 38.76 23.532 34.839 23.532 30.022 C 23.532 25.203 27.542 21.283 32.472 21.283 C 37.4 21.283 41.411 25.203 41.411 30.022 C 41.411 34.839 37.4 38.76 32.472 38.76 Z" stroke="none" style=""/>
  <path d="M 30.853 56.057 C 24.548 56.057 19.418 61.125 19.418 67.353 C 19.418 73.58 24.548 78.647 30.853 78.647 C 37.157 78.647 42.286 73.58 42.286 67.353 C 42.286 61.125 37.157 56.057 30.853 56.057 Z M 30.853 76.137 C 25.948 76.137 21.959 72.196 21.959 67.353 C 21.959 62.509 25.948 58.567 30.853 58.567 C 35.755 58.567 39.745 62.509 39.745 67.353 C 39.745 72.196 35.755 76.137 30.853 76.137 Z" stroke="none" style=""/>
  <path d="M 67.413 57.138 C 61.337 57.138 56.394 62.179 56.394 68.374 C 56.394 74.569 61.337 79.609 67.413 79.609 C 73.487 79.609 78.43 74.569 78.43 68.374 C 78.43 62.179 73.487 57.138 67.413 57.138 Z M 67.413 77.112 C 62.687 77.112 58.843 73.192 58.843 68.374 C 58.843 63.556 62.687 59.635 67.413 59.635 C 72.137 59.635 75.982 63.556 75.982 68.374 C 75.982 73.192 72.137 77.112 67.413 77.112 Z" stroke="none" style=""/>
</svg>