<?xml version="1.0" encoding="utf-8"?>
<svg width="200px" height="200px" viewBox="0 0 100 100" xmlns="http://www.w3.org/2000/svg">
  <path d="M80,5L20,5C11.716,5,5,11.716,5,20L5,80C5,88.284,11.716,95,20,95L80,95C88.284,95,95,88.284,95,80L95,20C95,11.716,88.284,5,80,5ZM87.5,80C87.5,84.135,84.135,87.5,80,87.5L20,87.5C15.865,87.5,12.5,84.135,12.5,80L12.5,20C12.5,15.865,15.865,12.5,20,12.5L80,12.5C84.135,12.5,87.5,15.865,87.5,20L87.5,80Z" stroke="none"/>
  <path d="M 50.813 15.336 C 45.262 15.336 40.746 19.923 40.746 25.561 C 40.746 31.198 45.262 35.785 50.813 35.785 C 56.363 35.785 60.879 31.198 60.879 25.561 C 60.879 19.923 56.363 15.336 50.813 15.336 Z M 50.813 33.513 C 46.495 33.513 42.983 29.945 42.983 25.561 C 42.983 21.176 46.495 17.608 50.813 17.608 C 55.129 17.608 58.642 21.176 58.642 25.561 C 58.642 29.945 55.129 33.513 50.813 33.513 Z" stroke="none" style=""/>
  <path d="M 50.911 40.172 C 45.36 40.172 40.844 44.759 40.844 50.397 C 40.844 56.034 45.36 60.621 50.911 60.621 C 56.461 60.621 60.977 56.034 60.977 50.397 C 60.977 44.759 56.461 40.172 50.911 40.172 Z M 50.911 58.349 C 46.593 58.349 43.081 54.781 43.081 50.397 C 43.081 46.012 46.593 42.444 50.911 42.444 C 55.227 42.444 58.74 46.012 58.74 50.397 C 58.74 54.781 55.227 58.349 50.911 58.349 Z" stroke="none" style=""/>
  <path d="M 50.911 65.851 C 45.36 65.851 40.844 70.438 40.844 76.076 C 40.844 81.713 45.36 86.3 50.911 86.3 C 56.461 86.3 60.977 81.713 60.977 76.076 C 60.977 70.438 56.461 65.851 50.911 65.851 Z M 50.911 84.028 C 46.593 84.028 43.081 80.46 43.081 76.076 C 43.081 71.691 46.593 68.123 50.911 68.123 C 55.227 68.123 58.74 71.691 58.74 76.076 C 58.74 80.46 55.227 84.028 50.911 84.028 Z" stroke="none" style=""/>
</svg>