<?xml version="1.0" encoding="utf-8"?>
<svg width="200px" height="200px" viewBox="0 0 100 100" xmlns="http://www.w3.org/2000/svg">
  <path d="M80,5L20,5C11.716,5,5,11.716,5,20L5,80C5,88.284,11.716,95,20,95L80,95C88.284,95,95,88.284,95,80L95,20C95,11.716,88.284,5,80,5ZM87.5,80C87.5,84.135,84.135,87.5,80,87.5L20,87.5C15.865,87.5,12.5,84.135,12.5,80L12.5,20C12.5,15.865,15.865,12.5,20,12.5L80,12.5C84.135,12.5,87.5,15.865,87.5,20L87.5,80Z" stroke="none"/>
  <path d="M 49.798 33.292 C 41.81 33.292 35.311 39.791 35.311 47.779 C 35.311 55.767 41.81 62.265 49.798 62.265 C 57.786 62.265 64.284 55.767 64.284 47.779 C 64.284 39.791 57.786 33.292 49.798 33.292 Z M 49.798 59.046 C 43.585 59.046 38.53 53.991 38.53 47.779 C 38.53 41.566 43.585 36.511 49.798 36.511 C 56.01 36.511 61.065 41.566 61.065 47.779 C 61.065 53.991 56.01 59.046 49.798 59.046 Z" stroke="none" style=""/>
</svg>