<?xml version="1.0" encoding="utf-8"?>
<!-- Svg Vector Icons : http://www.onlinewebfonts.com/icon -->
<!DOCTYPE svg PUBLIC "-//W3C//DTD SVG 1.1//EN" "http://www.w3.org/Graphics/SVG/1.1/DTD/svg11.dtd">
<svg version="1.1" xmlns="http://www.w3.org/2000/svg" xmlns:xlink="http://www.w3.org/1999/xlink" x="0px" y="0px" viewBox="0 0 1000 1000" enable-background="new 0 0 1000 1000" xml:space="preserve">
<metadata> Svg Vector Icons : http://www.onlinewebfonts.com/icon </metadata>
<g><g transform="translate(0.000000,511.000000) scale(0.100000,-0.100000)"><path d="M2060.6,3351c-32.6-13.4-70.9-46-84.3-70.9C1934.2,3203.5,696.6,326,702.3,318.4c3.8-1.9,70.9,21.1,151.3,53.6c339.1,136-28.7,124.5,4151.5,124.5c3620.8,0,3770.3-1.9,3896.7-36.4c72.8-19.2,193.5-59.4,266.3-90c74.7-30.7,136-53.6,137.9-51.7c5.7,7.7-1174.4,2758.7-1245.3,2904.3c-36.4,76.6-65.1,109.2-114.9,130.3C7850.1,3393.2,2154.5,3393.2,2060.6,3351z"/><path d="M1250.2,75C687-38,236.8-494,127.6-1061c-38.3-199.2-36.4-764.4,3.8-957.9c111.1-538.3,542.2-984.7,1074.8-1109.2c141.8-32.6,327.6-34.5,3799-34.5c4126.6,0,3783.7-13.4,4118.9,155.2c289.3,145.6,555.6,431,676.3,728c90.1,222.2,99.6,298.9,99.6,754.8c0,358.3-5.7,452.1-34.5,555.6C9725.7-472.9,9348.3-91.6,8846.3,59.7C8737.1,92.3,8534,94.2,5053.1,98C2095.1,99.9,1349.9,96.1,1250.2,75z M2286.7-1597.4c65.1-72.8,74.7-178.2,24.9-251c-61.3-86.2-128.3-97.7-584.3-97.7c-475.1,0-526.8,11.5-580.5,124.5c-38.3,78.5-38.3,93.9,0,172.4c55.6,116.9,95.8,124.5,616.9,120.7l467.5-5.7L2286.7-1597.4z M3865.3-1555.3c59.4-26.8,124.5-122.6,124.5-180.1c0-13.4-13.4-51.7-30.7-86.2c-53.6-113-105.4-124.5-580.5-124.5c-456,0-523,11.5-584.3,97.7c-67.1,95.8-17.2,260.6,92,304.6c21.1,9.6,237.6,17.2,477,17.2C3725.4-1524.6,3813.5-1530.4,3865.3-1555.3z M5493.7-1551.5c67.1-28.7,124.5-113,124.5-183.9c0-70.9-57.5-155.2-124.5-183.9c-49.8-21.1-166.7-26.8-488.5-26.8c-469.4,0-530.7,11.5-582.4,113c-38.3,72.8-38.3,122.6,0,195.4c51.7,101.5,105.4,111.1,578.6,113C5327-1524.6,5443.9-1530.4,5493.7-1551.5z M7191.1-1597.4c65.1-72.8,74.7-178.2,24.9-251c-61.3-86.2-128.4-97.7-584.3-97.7c-475.1,0-526.8,11.5-580.5,124.5c-38.3,78.5-38.3,93.9,0,172.4c55.6,116.9,95.8,124.5,616.9,120.7l467.5-5.7L7191.1-1597.4z M8769.7-1555.3c59.4-26.8,124.5-122.6,124.5-180.1c0-13.4-13.4-51.7-30.6-86.2c-53.7-113-105.4-124.5-580.5-124.5c-456,0-523,11.5-584.3,97.7c-67.1,95.8-17.2,260.6,92,304.6c21.1,9.6,237.6,17.2,477,17.2C8629.8-1524.6,8717.9-1530.4,8769.7-1555.3z"/></g></g>
</svg>