
<svg width="100px" height="100px" xmlns="http://www.w3.org/2000/svg"
     version="1.1" xml:space="preserve"
     viewBox="0 0 373.648 373.648">
 <g>
    <g id="svg_1" stroke="null">
   <g id="Artwork_24_" stroke="null">
    <g id="Layer_5_24_" stroke="null">
     <path d="m177.79613,80.03185l-71.55155,-59.99444c-6.2814,-5.26688 -16.56001,-5.26688 -22.84095,0l-71.55155,59.99444c-6.2814,5.26688 -4.7143,9.57593 3.48321,9.57593l17.14094,0c0,0 1.73766,0.07715 1.73766,1.64471c0,15.81086 0,63.24203 0,63.24203c0,6.58487 5.33845,11.92332 11.92332,11.92332l97.37333,0c6.5858,0 11.92332,-5.33798 11.92332,-11.92332c0,0 0,-47.52041 0,-63.36008c0,-1.44905 1.57407,-1.5262 1.57407,-1.5262l17.30453,0c8.19798,-0.00046 9.76554,-4.30952 3.48368,-9.57639l-0.00001,0zm-52.85281,41.98956c-4.82259,7.33496 -25.58662,24.77752 -30.08761,24.77752c-4.40618,-0.00046 -25.35844,-17.50576 -30.15082,-24.77752c-2.39851,-3.63983 -4.10085,-7.65796 -3.81968,-12.93831c0.50145,-9.34728 8.14407,-17.06704 17.5039,-17.06704c9.62287,0.00046 15.22715,10.267 16.43547,10.26746c1.38306,0 7.22575,-10.26746 16.43547,-10.267c9.36029,-0.00046 17.00245,7.71837 17.50297,17.06611c0.28256,5.28082 -1.4142,9.28222 -3.81968,12.93878l-0.00002,0z" id="svg_2" stroke="null"/>
    </g>
   </g>
  </g>
   <g id="svg_6" stroke="null">
   <g id="svg_5" stroke="null">
    <g id="svg_4" stroke="null">
     <path d="m359.79613,80.03185l-71.55155,-59.99444c-6.2814,-5.26688 -16.56002,-5.26688 -22.84095,0l-71.55156,59.99444c-6.2814,5.26688 -4.7143,9.57593 3.48322,9.57593l17.14093,0c0,0 1.73766,0.07715 1.73766,1.64471c0,15.81086 0,63.24203 0,63.24203c0,6.58488 5.33845,11.92333 11.92332,11.92333l97.37334,0c6.5858,0 11.92332,-5.33799 11.92332,-11.92333c0,0 0,-47.5204 0,-63.36007c0,-1.44906 1.57407,-1.5262 1.57407,-1.5262l17.30452,0c8.19798,-0.00047 9.76555,-4.30952 3.48368,-9.5764zm-52.85281,41.98956c-4.82259,7.33496 -25.58663,24.77751 -30.08762,24.77751c-4.40618,-0.00046 -25.35843,-17.50575 -30.15081,-24.77751c-2.39852,-3.63983 -4.10085,-7.65796 -3.81969,-12.93831c0.50146,-9.34728 8.14408,-17.06705 17.5039,-17.06705c9.62287,0.00047 15.22715,10.267 16.43547,10.26746c1.38306,0 7.22575,-10.26746 16.43546,-10.26699c9.36029,-0.00047 17.00245,7.71837 17.50297,17.06611c0.28256,5.28082 -1.4142,9.28222 -3.81968,12.93878z" id="svg_3" stroke="null"/>
    </g>
   </g>
  </g>
   <g id="svg_10" stroke="null">
   <g id="svg_9" stroke="null">
    <g id="svg_8" stroke="null">
     <path d="m180.79613,258.70818l-71.55155,-59.99444c-6.2814,-5.26688 -16.56002,-5.26688 -22.84095,0l-71.55156,59.99444c-6.2814,5.26688 -4.7143,9.57593 3.48322,9.57593l17.14093,0c0,0 1.73766,0.07715 1.73766,1.64471c0,15.81086 0,63.24203 0,63.24203c0,6.58488 5.33845,11.92333 11.92332,11.92333l97.37334,0c6.5858,0 11.92332,-5.33799 11.92332,-11.92333c0,0 0,-47.5204 0,-63.36007c0,-1.44906 1.57407,-1.5262 1.57407,-1.5262l17.30452,0c8.19798,-0.00047 9.76555,-4.30952 3.48368,-9.5764zm-52.85281,41.98956c-4.82259,7.33496 -25.58663,24.77751 -30.08762,24.77751c-4.40618,-0.00046 -25.35843,-17.50575 -30.15081,-24.77751c-2.39852,-3.63983 -4.10085,-7.65796 -3.81969,-12.93831c0.50146,-9.34728 8.14408,-17.06705 17.5039,-17.06705c9.62287,0.00047 15.22715,10.267 16.43547,10.26746c1.38306,0 7.22575,-10.26746 16.43546,-10.26699c9.36029,-0.00047 17.00245,7.71837 17.50297,17.06611c0.28256,5.28082 -1.4142,9.28222 -3.81968,12.93878z" id="svg_7" stroke="null"/>
    </g>
   </g>
  </g>
   <g id="svg_14" stroke="null">
   <g id="svg_13" stroke="null">
    <g id="svg_12" stroke="null">
     <path d="m362.79613,258.70818l-71.55155,-59.99444c-6.2814,-5.26688 -16.56002,-5.26688 -22.84095,0l-71.55156,59.99444c-6.2814,5.26688 -4.7143,9.57593 3.48322,9.57593l17.14093,0c0,0 1.73766,0.07715 1.73766,1.64471c0,15.81086 0,63.24203 0,63.24203c0,6.58488 5.33845,11.92333 11.92332,11.92333l97.37334,0c6.5858,0 11.92332,-5.33799 11.92332,-11.92333c0,0 0,-47.5204 0,-63.36007c0,-1.44906 1.57407,-1.5262 1.57407,-1.5262l17.30452,0c8.19798,-0.00047 9.76555,-4.30952 3.48368,-9.5764zm-52.85281,41.98956c-4.82259,7.33496 -25.58663,24.77751 -30.08762,24.77751c-4.40618,-0.00046 -25.35843,-17.50575 -30.15081,-24.77751c-2.39852,-3.63983 -4.10085,-7.65796 -3.81969,-12.93831c0.50146,-9.34728 8.14408,-17.06705 17.5039,-17.06705c9.62287,0.00047 15.22715,10.267 16.43547,10.26746c1.38306,0 7.22575,-10.26746 16.43546,-10.26699c9.36029,-0.00047 17.00245,7.71837 17.50297,17.06611c0.28256,5.28082 -1.4142,9.28222 -3.81968,12.93878z" id="svg_11" stroke="null"/>
    </g>
   </g>
  </g>
 </g>

</svg>
