<svg width="100" height="100" xmlns="http://www.w3.org/2000/svg" viewBox="0 0 100 100">

  <g>
     <path transform="rotate(90 70.9506 49.3377)" stroke="null" id="svg_1" d="m92.10889,43.90412c1.40764,1.33726 1.54841,3.51911 0.21115,4.92675c-0.70382,0.7742 -1.61879,1.12612 -2.60414,1.12612c-0.84459,0 -1.68917,-0.28153 -2.39299,-0.91497c-15.62485,-14.28759 -32.44619,-0.70382 -33.15002,-0.14076c-1.47803,1.26688 -3.73026,1.05573 -4.92675,-0.42229c-1.26688,-1.47803 -1.05573,-3.65987 0.42229,-4.92675c7.67166,-6.40478 26.25256,-14.49873 42.44047,0.35191zm-20.97389,19.56625c-1.75955,0 -3.51911,0.70382 -4.71561,1.9707c-1.26688,1.26688 -1.9707,2.95605 -1.9707,4.71561s0.70382,3.44873 1.9707,4.71561c1.26688,1.26688 2.95605,1.9707 4.71561,1.9707s3.51911,-0.70382 4.71561,-1.9707c1.26688,-1.26688 1.9707,-2.95605 1.9707,-4.71561s-0.70382,-3.44873 -1.9707,-4.71561c-1.26688,-1.26688 -2.95605,-1.9707 -4.71561,-1.9707zm30.96817,-29.13823c-16.68058,-14.56911 -32.7981,-13.79491 -43.42582,-10.55733c-11.33153,3.44873 -18.72166,10.20542 -19.00319,10.55733c-1.40764,1.33726 -1.47803,3.51911 -0.14076,4.92675c1.33726,1.40764 3.58949,1.47803 4.99714,0.14076c0.07038,-0.07038 6.47516,-5.98249 16.25829,-8.93854c12.95032,-3.9414 25.26721,-0.84459 36.73951,9.14969c0.63344,0.56306 1.47803,0.84459 2.32261,0.84459c0.98535,0 1.9707,-0.42229 2.67452,-1.1965c1.1965,-1.40764 1.05573,-3.65987 -0.42229,-4.92675zm-42.79238,19.21434c-1.54841,1.1965 -1.75955,3.37835 -0.56306,4.92675s3.44873,1.75955 4.92675,0.56306c0.28153,-0.21115 7.74204,-5.98249 14.07644,-0.07038c0.70382,0.63344 1.54841,0.91497 2.39299,0.91497c0.91497,0 1.90032,-0.35191 2.60414,-1.12612c1.33726,-1.40764 1.26688,-3.65987 -0.21115,-4.92675c-8.51625,-7.88281 -18.93281,-3.58949 -23.22613,-0.28153z"/>
    <path transform="rotate(-90 29.168 49.5877)" stroke="null" id="svg_2" d="m50.48961,44.11217c1.41852,1.34758 1.56037,3.54627 0.21278,4.96479c-0.70926,0.78018 -1.63128,1.1348 -2.62425,1.1348c-0.85111,0 -1.70221,-0.28369 -2.41147,-0.92202c-15.74549,-14.39791 -32.69672,-0.70926 -33.40597,-0.14186c-1.48945,1.27666 -3.75906,1.06388 -4.96479,-0.42555c-1.27667,-1.48944 -1.0639,-3.68813 0.42555,-4.96479c7.73089,-6.45423 26.45526,-14.61068 42.76816,0.35464zm-21.13584,19.71733c-1.77314,0 -3.54629,0.70925 -4.75202,1.98591c-1.27666,1.27667 -1.98592,2.97889 -1.98592,4.75203s0.70926,3.47535 1.98592,4.75202c1.27666,1.27666 2.97887,1.98591 4.75202,1.98591s3.54627,-0.70925 4.75202,-1.98591c1.27666,-1.27667 1.98592,-2.97889 1.98592,-4.75202s-0.70926,-3.47536 -1.98592,-4.75203c-1.27666,-1.27666 -2.97887,-1.98591 -4.75202,-1.98591zm31.20729,-29.36322c-16.80939,-14.68161 -33.05136,-13.90143 -43.76112,-10.63885c-11.41904,3.47536 -18.86622,10.28422 -19.14993,10.63885c-1.41851,1.34759 -1.48944,3.54629 -0.14185,4.96479c1.34758,1.41852 3.6172,1.48944 5.03571,0.14186c0.07093,-0.07093 6.52516,-6.02869 16.38383,-9.00756c13.05032,-3.97183 25.4623,-0.85111 37.02319,9.22034c0.63833,0.5674 1.48944,0.85111 2.34054,0.85111c0.99297,0 1.98592,-0.42555 2.69518,-1.20574c1.20573,-1.41851 1.06388,-3.68813 -0.42555,-4.96479zm-43.12279,19.36271c-1.56037,1.20573 -1.77314,3.40443 -0.56741,4.96479s3.47536,1.77314 4.96479,0.5674c0.28371,-0.21278 7.80182,-6.02868 14.18514,-0.07092c0.70926,0.63833 1.56037,0.92202 2.41147,0.92202c0.92204,0 1.91499,-0.35462 2.62425,-1.1348c1.34758,-1.41852 1.27666,-3.68813 -0.21278,-4.96481c-8.58201,-7.94367 -19.079,-3.6172 -23.40546,-0.28369z"/>
  </g>
</svg>
