<svg width="218px" height="218px" version="1.1" id="Layer_1" xmlns="http://www.w3.org/2000/svg" xmlns:xlink="http://www.w3.org/1999/xlink" x="0px" y="0px"
     viewBox="0 0 218.207 218.207" style="enable-background:new 0 0 218.207 218.207;" xml:space="preserve">
<g>
	<g>
		<g>
			<path d="M194.829,0H23.38c-2.154,0-3.897,1.743-3.897,3.897V214.31c0,2.154,1.743,3.897,3.897,3.897h171.448
				c2.154,0,3.897-1.743,3.897-3.897V3.897C198.725,1.743,196.982,0,194.829,0z M190.932,210.414H27.277V7.793h163.655V210.414z"/>
      <path d="M58.448,183.138h101.31c2.154,0,3.897-1.743,3.897-3.897v-11.69c0-0.095-0.047-0.175-0.054-0.268
				c-0.006-0.083,0.031-0.162,0.02-0.245l-7.725-57.935l7.725-57.935c0.011-0.083-0.025-0.162-0.02-0.245
				c0.007-0.093,0.054-0.173,0.054-0.268v-11.69c0-2.154-1.743-3.897-3.897-3.897H58.448c-2.154,0-3.897,1.743-3.897,3.897v11.69
				c0,0.095,0.047,0.175,0.054,0.268c0.006,0.083-0.031,0.162-0.02,0.245l7.725,57.935l-7.725,57.935
				c-0.011,0.083,0.025,0.162,0.02,0.245c-0.007,0.094-0.054,0.173-0.054,0.268v11.69C54.553,181.395,56.295,183.138,58.448,183.138
				z M62.346,42.862h93.517v3.897H62.346V42.862z M148.553,105.207H69.656l-6.755-50.655h92.406L148.553,105.207z M155.307,163.655
				H62.901L69.656,113h78.897L155.307,163.655z M62.346,171.448h93.517v3.897H62.346V171.448z"/>
      <rect x="105.208" y="62.345" width="7.793" height="35.069"/>
      <path d="M109.104,116.897c-10.742,0-19.483,8.741-19.483,19.483s8.741,19.483,19.483,19.483s19.483-8.741,19.483-19.483
				C128.587,125.637,119.846,116.897,109.104,116.897z M109.104,148.069c-6.446,0-11.69-5.244-11.69-11.69
				c0-6.446,5.244-11.69,11.69-11.69c6.446,0,11.69,5.244,11.69,11.69C120.794,142.825,115.55,148.069,109.104,148.069z"/>
		</g>
	</g>
</g>
</svg>
