
<svg width="100px" height="100px" style="enable-background:new 0 0 60.002 60.002;" version="1.1"
     viewBox="0 0 60.002 60.002" x="0px" xml:space="preserve"
     xmlns="http://www.w3.org/2000/svg" y="0px">

 <g>
    <g stroke="null" id="svg_1">
   <path stroke="null" id="svg_2" d="m22.56563,3.21356c-2.30261,-1.85654 -5.27439,-2.70848 -8.3754,-2.39937c-4.92908,0.49241 -8.89756,4.07355 -9.43593,8.51606c-0.36572,3.019 0.81253,5.94942 3.23286,8.03967c1.56123,1.34811 2.45695,3.20371 2.45695,5.09041l0,0.91084l0,0.94241l0,0.94241l0,1.88481l1.308,0l1.5696,1.88481l3.66241,0l1.5696,-1.88481l1.308,0l0,-1.88481l0,-0.94241l0,-0.94241l0,-0.4712c0,-1.98754 0.9742,-3.90628 2.67251,-5.26476c2.29162,-1.83251 3.6059,-4.46512 3.6059,-7.22214c0,-2.74429 -1.30277,-5.36889 -3.57451,-7.19952zm-6.10471,24.86918l-2.616,0l-0.7848,-0.94241l4.18561,0l-0.7848,0.94241zm2.3544,-1.88481l-7.32481,0l0,-0.94241l7.32481,0l0,0.94241zm0,-1.88481l-7.32481,0l0,-0.94241l2.0928,0l3.13921,0l2.0928,0l0,0.94241zm-4.18561,-5.18324l1.0464,0l0,3.29842l-1.0464,0l0,-3.29842zm7.20971,-2.20005c-1.78778,1.42963 -2.86662,3.41246 -3.00841,5.49847l-2.10902,0l0,-3.76963c0,-3.4789 0.82143,-4.71203 3.13921,-4.71203c0.28881,0 0.5232,-0.21063 0.5232,-0.4712s-0.23439,-0.4712 -0.5232,-0.4712c-3.85599,0 -4.15892,3.23764 -4.18299,5.18324l-1.05216,0c-0.02407,-1.9456 -0.327,-5.18324 -4.18299,-5.18324c-0.28881,0 -0.5232,0.21063 -0.5232,0.4712s0.23439,0.4712 0.5232,0.4712c2.31778,0 3.13921,1.23314 3.13921,4.71203l0,3.76963l-2.0928,0c-0.00994,-2.13078 -1.02181,-4.22104 -2.77924,-5.73879c-2.18384,-1.88623 -3.24699,-4.53109 -2.91685,-7.257c0.48658,-4.00711 4.06632,-7.23721 8.51248,-7.68156c2.79965,-0.27895 5.48367,0.48911 7.56182,2.16424c2.0499,1.65298 3.22606,4.02125 3.22606,6.49742c0,2.48843 -1.1861,4.86376 -3.25431,6.51722z"/>
     <path stroke="null" id="svg_3" d="m21.70759,10.71889c-0.24486,-0.13665 -0.56767,-0.06974 -0.72045,0.15126c-0.32072,0.46414 -0.71992,0.72 -1.12541,0.72s-0.80468,-0.25586 -1.12541,-0.72c-0.00262,-0.00377 -0.00732,-0.00565 -0.00994,-0.0099c-0.01936,-0.02639 -0.04761,-0.04665 -0.07325,-0.06974c-0.02459,-0.02168 -0.04552,-0.04571 -0.07377,-0.06267c-0.00471,-0.00283 -0.0068,-0.00707 -0.01151,-0.00942c-0.02302,-0.01272 -0.04918,-0.01508 -0.07325,-0.0245c-0.03453,-0.01319 -0.06697,-0.02827 -0.10359,-0.0344c-0.03296,-0.00565 -0.0654,-0.0033 -0.09836,-0.0033c-0.03401,0 -0.06697,-0.00283 -0.10098,0.0033c-0.03715,0.0066 -0.07011,0.02168 -0.10516,0.03534c-0.02354,0.00942 -0.04866,0.01131 -0.07116,0.02403c-0.00419,0.00236 -0.00628,0.0066 -0.01046,0.00895c-0.0293,0.01743 -0.0518,0.04241 -0.07691,0.06503c-0.02459,0.02215 -0.0518,0.04147 -0.07011,0.06738c-0.00262,0.00377 -0.00732,0.00565 -0.01046,0.0099c-0.32072,0.46414 -0.71992,0.72 -1.12541,0.72s-0.80468,-0.25586 -1.12541,-0.72c-0.00262,-0.00377 -0.00732,-0.00565 -0.00994,-0.0099c-0.01936,-0.02639 -0.04761,-0.04665 -0.07325,-0.06974c-0.02459,-0.02168 -0.04552,-0.04571 -0.07377,-0.06267c-0.00471,-0.00283 -0.0068,-0.00707 -0.01151,-0.00942c-0.02302,-0.01272 -0.04918,-0.01508 -0.07325,-0.0245c-0.03453,-0.01319 -0.06697,-0.02827 -0.10359,-0.0344c-0.03296,-0.00565 -0.0654,-0.0033 -0.09836,-0.0033c-0.03401,0 -0.06697,-0.00283 -0.10098,0.0033c-0.03715,0.0066 -0.07011,0.02168 -0.10516,0.03534c-0.02354,0.00942 -0.04866,0.01131 -0.07116,0.02403c-0.00419,0.00236 -0.00628,0.0066 -0.01046,0.00895c-0.0293,0.01743 -0.0518,0.04241 -0.07691,0.06503c-0.02459,0.02215 -0.0518,0.04147 -0.07011,0.06738c-0.00262,0.00377 -0.00732,0.00565 -0.01046,0.0099c-0.32072,0.46414 -0.71992,0.72 -1.12541,0.72s-0.80468,-0.25586 -1.12541,-0.72c-0.00262,-0.00377 -0.00732,-0.00565 -0.00994,-0.0099c-0.01936,-0.02639 -0.04761,-0.04665 -0.07325,-0.06974c-0.02459,-0.02168 -0.04552,-0.04571 -0.07377,-0.06267c-0.00471,-0.00283 -0.0068,-0.00707 -0.01151,-0.00942c-0.02302,-0.01272 -0.04918,-0.01508 -0.07325,-0.0245c-0.03453,-0.01319 -0.06697,-0.02827 -0.10359,-0.0344c-0.03296,-0.00565 -0.0654,-0.0033 -0.09836,-0.0033c-0.03401,0 -0.06697,-0.00283 -0.10098,0.0033c-0.03715,0.0066 -0.07011,0.02168 -0.10516,0.03534c-0.02354,0.00942 -0.04866,0.01131 -0.07116,0.02403c-0.00419,0.00236 -0.00628,0.0066 -0.01046,0.00895c-0.0293,0.01743 -0.0518,0.04241 -0.07691,0.06503c-0.02459,0.02215 -0.0518,0.04147 -0.07011,0.06738c-0.00262,0.00377 -0.00732,0.00565 -0.01046,0.0099c-0.32072,0.46414 -0.71992,0.72 -1.12541,0.72s-0.80468,-0.25586 -1.12541,-0.72c-0.15277,-0.22099 -0.47559,-0.28838 -0.72045,-0.15126c-0.24538,0.13759 -0.32072,0.42785 -0.16795,0.64932c0.51849,0.7511 1.23371,1.16481 2.0138,1.16481c0.57657,0 1.11703,-0.22712 1.5696,-0.64838c0.45257,0.42126 0.99304,0.64838 1.5696,0.64838s1.11703,-0.22712 1.5696,-0.64838c0.45257,0.42126 0.99304,0.64838 1.5696,0.64838s1.11703,-0.22712 1.5696,-0.64838c0.45257,0.42126 0.99304,0.64838 1.5696,0.64838c0.78009,0 1.49531,-0.41372 2.0138,-1.16481c0.15382,-0.22099 0.079,-0.51173 -0.16638,-0.64932z"/>
  </g>
   <g stroke="null" id="svg_18">
   <path stroke="null" id="svg_16" d="m22.56564,33.28869c-2.30261,-1.85655 -5.27439,-2.70848 -8.37541,-2.39937c-4.92907,0.49241 -8.89755,4.07355 -9.43593,8.51606c-0.36571,3.019 0.81254,5.94941 3.23286,8.03967c1.56124,1.34812 2.45696,3.20372 2.45696,5.09041l0,0.91084l0,0.94241l0,0.9424l0,1.88482l1.308,0l1.5696,1.88481l3.66241,0l1.5696,-1.88481l1.308,0l0,-1.88482l0,-0.9424l0,-0.94241l0,-0.4712c0,-1.98754 0.9742,-3.90628 2.67251,-5.26476c2.29162,-1.83251 3.6059,-4.46512 3.6059,-7.22214c0,-2.74428 -1.30277,-5.36889 -3.5745,-7.19951zm-6.10471,24.86917l-2.61601,0l-0.7848,-0.9424l4.18561,0l-0.7848,0.9424zm2.3544,-1.88481l-7.32481,0l0,-0.94241l7.32481,0l0,0.94241zm0,-1.88481l-7.32481,0l0,-0.94241l2.0928,0l3.13921,0l2.0928,0l0,0.94241zm-4.18561,-5.18324l1.04641,0l0,3.29842l-1.04641,0l0,-3.29842zm7.20971,-2.20005c-1.78778,1.42963 -2.86662,3.41245 -3.0084,5.49847l-2.10903,0l0,-3.76963c0,-3.47889 0.82143,-4.71203 3.13921,-4.71203c0.28881,0 0.5232,-0.21063 0.5232,-0.4712s-0.23439,-0.47121 -0.5232,-0.47121c-3.85599,0 -4.15892,3.23764 -4.18299,5.18324l-1.05216,0c-0.02407,-1.9456 -0.327,-5.18324 -4.18299,-5.18324c-0.28881,0 -0.5232,0.21063 -0.5232,0.47121s0.23439,0.4712 0.5232,0.4712c2.31778,0 3.1392,1.23314 3.1392,4.71203l0,3.76963l-2.0928,0c-0.00994,-2.13078 -1.02181,-4.22104 -2.77924,-5.73879c-2.18384,-1.88622 -3.24699,-4.53109 -2.91685,-7.257c0.48658,-4.00711 4.06632,-7.23721 8.51248,-7.68156c2.79965,-0.27895 5.48367,0.48911 7.56183,2.16424c2.0499,1.65298 3.22605,4.02125 3.22605,6.49742c0,2.48843 -1.18609,4.86377 -3.25431,6.51722z"/>
     <path stroke="null" id="svg_17" d="m21.70759,40.79402c-0.24486,-0.13665 -0.56768,-0.06974 -0.72045,0.15125c-0.32072,0.46414 -0.71993,0.72 -1.12541,0.72s-0.80468,-0.25586 -1.1254,-0.72c-0.00262,-0.00377 -0.00733,-0.00565 -0.00994,-0.00989c-0.01936,-0.02639 -0.04761,-0.04665 -0.07325,-0.06974c-0.02459,-0.02168 -0.04552,-0.04571 -0.07377,-0.06267c-0.00471,-0.00283 -0.0068,-0.00707 -0.01151,-0.00943c-0.02302,-0.01272 -0.04918,-0.01507 -0.07325,-0.0245c-0.03453,-0.01319 -0.06697,-0.02827 -0.10359,-0.0344c-0.03297,-0.00565 -0.06541,-0.00329 -0.09837,-0.00329c-0.034,0 -0.06697,-0.00283 -0.10097,0.00329c-0.03715,0.0066 -0.07011,0.02168 -0.10517,0.03534c-0.02354,0.00943 -0.04866,0.01131 -0.07115,0.02404c-0.00419,0.00235 -0.00628,0.00659 -0.01047,0.00895c-0.0293,0.01743 -0.05179,0.04241 -0.07691,0.06502c-0.02459,0.02215 -0.05179,0.04147 -0.07011,0.06739c-0.00261,0.00377 -0.00732,0.00565 -0.01046,0.00989c-0.32072,0.46414 -0.71993,0.72 -1.12541,0.72s-0.80468,-0.25586 -1.1254,-0.72c-0.00262,-0.00377 -0.00733,-0.00565 -0.00994,-0.00989c-0.01936,-0.02639 -0.04761,-0.04665 -0.07325,-0.06974c-0.02459,-0.02168 -0.04552,-0.04571 -0.07377,-0.06267c-0.00471,-0.00283 -0.0068,-0.00707 -0.01151,-0.00943c-0.02302,-0.01272 -0.04918,-0.01507 -0.07325,-0.0245c-0.03453,-0.01319 -0.06697,-0.02827 -0.10359,-0.0344c-0.03297,-0.00565 -0.0654,-0.00329 -0.09837,-0.00329c-0.034,0 -0.06697,-0.00283 -0.10097,0.00329c-0.03715,0.0066 -0.07011,0.02168 -0.10517,0.03534c-0.02354,0.00943 -0.04865,0.01131 -0.07115,0.02404c-0.00419,0.00235 -0.00628,0.00659 -0.01047,0.00895c-0.0293,0.01743 -0.05179,0.04241 -0.07691,0.06502c-0.02459,0.02215 -0.05179,0.04147 -0.07011,0.06739c-0.00261,0.00377 -0.00732,0.00565 -0.01046,0.00989c-0.32072,0.46414 -0.71992,0.72 -1.12541,0.72s-0.80468,-0.25586 -1.1254,-0.72c-0.00262,-0.00377 -0.00733,-0.00565 -0.00994,-0.00989c-0.01936,-0.02639 -0.04761,-0.04665 -0.07325,-0.06974c-0.02459,-0.02168 -0.04552,-0.04571 -0.07377,-0.06267c-0.00471,-0.00283 -0.0068,-0.00707 -0.01151,-0.00943c-0.02302,-0.01272 -0.04918,-0.01507 -0.07325,-0.0245c-0.03453,-0.01319 -0.06697,-0.02827 -0.10359,-0.0344c-0.03296,-0.00565 -0.0654,-0.00329 -0.09836,-0.00329c-0.03401,0 -0.06697,-0.00283 -0.10098,0.00329c-0.03715,0.0066 -0.07011,0.02168 -0.10517,0.03534c-0.02354,0.00943 -0.04865,0.01131 -0.07115,0.02404c-0.00419,0.00235 -0.00628,0.00659 -0.01047,0.00895c-0.02929,0.01743 -0.05179,0.04241 -0.07691,0.06502c-0.02459,0.02215 -0.05179,0.04147 -0.0701,0.06739c-0.00262,0.00377 -0.00733,0.00565 -0.01047,0.00989c-0.32072,0.46414 -0.71992,0.72 -1.1254,0.72s-0.80469,-0.25586 -1.12541,-0.72c-0.15277,-0.22099 -0.47559,-0.28837 -0.72045,-0.15125c-0.24538,0.13759 -0.32072,0.42785 -0.16794,0.64931c0.51849,0.7511 1.2337,1.16482 2.0138,1.16482c0.57656,0 1.11703,-0.22712 1.5696,-0.64838c0.45257,0.42126 0.99303,0.64838 1.5696,0.64838s1.11704,-0.22712 1.5696,-0.64838c0.45257,0.42126 0.99304,0.64838 1.56961,0.64838s1.11703,-0.22712 1.5696,-0.64838c0.45257,0.42126 0.99304,0.64838 1.5696,0.64838c0.7801,0 1.49531,-0.41372 2.0138,-1.16482c0.15383,-0.22099 0.07901,-0.51172 -0.16637,-0.64931z"/>
  </g>
   <g stroke="null" id="svg_21">
   <path stroke="null" id="svg_19" d="m51.58813,3.51432c-2.30261,-1.85655 -5.27439,-2.70848 -8.3754,-2.39937c-4.92908,0.49241 -8.89756,4.07355 -9.43593,8.51606c-0.36572,3.019 0.81253,5.94941 3.23286,8.03967c1.56123,1.34812 2.45695,3.20372 2.45695,5.09041l0,0.91084l0,0.94241l0,0.9424l0,1.88482l1.308,0l1.5696,1.88481l3.66241,0l1.5696,-1.88481l1.30801,0l0,-1.88482l0,-0.9424l0,-0.94241l0,-0.4712c0,-1.98754 0.9742,-3.90628 2.67251,-5.26476c2.29162,-1.83251 3.6059,-4.46512 3.6059,-7.22214c0,-2.74428 -1.30277,-5.36889 -3.57451,-7.19951zm-6.10471,24.86917l-2.61601,0l-0.7848,-0.9424l4.18561,0l-0.7848,0.9424zm2.3544,-1.88481l-7.32481,0l0,-0.94241l7.32481,0l0,0.94241zm0,-1.88481l-7.32481,0l0,-0.94241l2.0928,0l3.13921,0l2.0928,0l0,0.94241zm-4.1856,-5.18324l1.0464,0l0,3.29842l-1.0464,0l0,-3.29842zm7.2097,-2.20005c-1.78777,1.42963 -2.86661,3.41245 -3.0084,5.49847l-2.10902,0l0,-3.76963c0,-3.47889 0.82142,-4.71203 3.1392,-4.71203c0.28881,0 0.5232,-0.21063 0.5232,-0.4712s-0.23439,-0.47121 -0.5232,-0.47121c-3.85599,0 -4.15892,3.23764 -4.18299,5.18324l-1.05216,0c-0.02406,-1.9456 -0.327,-5.18324 -4.18299,-5.18324c-0.28881,0 -0.5232,0.21063 -0.5232,0.47121s0.23439,0.4712 0.5232,0.4712c2.31778,0 3.13921,1.23314 3.13921,4.71203l0,3.76963l-2.09281,0c-0.00994,-2.13078 -1.02181,-4.22104 -2.77924,-5.73879c-2.18384,-1.88622 -3.24699,-4.53109 -2.91685,-7.257c0.48658,-4.00711 4.06632,-7.23721 8.51248,-7.68156c2.79965,-0.27895 5.48367,0.48911 7.56183,2.16424c2.0499,1.65298 3.22606,4.02125 3.22606,6.49742c0,2.48843 -1.1861,4.86377 -3.25432,6.51722z"/>
     <path stroke="null" id="svg_20" d="m50.73008,11.01965c-0.24486,-0.13665 -0.56767,-0.06974 -0.72045,0.15125c-0.32072,0.46414 -0.71992,0.72 -1.1254,0.72s-0.80469,-0.25586 -1.12541,-0.72c-0.00262,-0.00377 -0.00732,-0.00565 -0.00994,-0.00989c-0.01936,-0.02639 -0.04761,-0.04665 -0.07325,-0.06974c-0.02459,-0.02168 -0.04552,-0.04571 -0.07377,-0.06267c-0.00471,-0.00283 -0.0068,-0.00707 -0.01151,-0.00943c-0.02302,-0.01272 -0.04918,-0.01507 -0.07325,-0.0245c-0.03453,-0.01319 -0.06697,-0.02827 -0.10359,-0.0344c-0.03296,-0.00565 -0.0654,-0.00329 -0.09836,-0.00329c-0.03401,0 -0.06697,-0.00283 -0.10098,0.00329c-0.03715,0.0066 -0.07011,0.02168 -0.10517,0.03534c-0.02354,0.00943 -0.04865,0.01131 -0.07115,0.02404c-0.00419,0.00235 -0.00628,0.00659 -0.01047,0.00895c-0.02929,0.01743 -0.05179,0.04241 -0.07691,0.06502c-0.02459,0.02215 -0.05179,0.04147 -0.0701,0.06739c-0.00262,0.00377 -0.00733,0.00565 -0.01047,0.00989c-0.32072,0.46414 -0.71992,0.72 -1.1254,0.72s-0.80469,-0.25586 -1.12541,-0.72c-0.00262,-0.00377 -0.00732,-0.00565 -0.00994,-0.00989c-0.01936,-0.02639 -0.04761,-0.04665 -0.07325,-0.06974c-0.02459,-0.02168 -0.04552,-0.04571 -0.07377,-0.06267c-0.00471,-0.00283 -0.0068,-0.00707 -0.01151,-0.00943c-0.02302,-0.01272 -0.04918,-0.01507 -0.07325,-0.0245c-0.03453,-0.01319 -0.06697,-0.02827 -0.10359,-0.0344c-0.03296,-0.00565 -0.0654,-0.00329 -0.09836,-0.00329c-0.03401,0 -0.06697,-0.00283 -0.10098,0.00329c-0.03715,0.0066 -0.07011,0.02168 -0.10516,0.03534c-0.02355,0.00943 -0.04866,0.01131 -0.07116,0.02404c-0.00419,0.00235 -0.00628,0.00659 -0.01046,0.00895c-0.0293,0.01743 -0.0518,0.04241 -0.07691,0.06502c-0.0246,0.02215 -0.0518,0.04147 -0.07011,0.06739c-0.00262,0.00377 -0.00733,0.00565 -0.01047,0.00989c-0.32072,0.46414 -0.71992,0.72 -1.1254,0.72s-0.80469,-0.25586 -1.12541,-0.72c-0.00261,-0.00377 -0.00732,-0.00565 -0.00994,-0.00989c-0.01936,-0.02639 -0.04761,-0.04665 -0.07325,-0.06974c-0.02459,-0.02168 -0.04552,-0.04571 -0.07377,-0.06267c-0.00471,-0.00283 -0.0068,-0.00707 -0.01151,-0.00943c-0.02302,-0.01272 -0.04918,-0.01507 -0.07325,-0.0245c-0.03453,-0.01319 -0.06697,-0.02827 -0.10359,-0.0344c-0.03296,-0.00565 -0.0654,-0.00329 -0.09836,-0.00329c-0.03401,0 -0.06697,-0.00283 -0.10098,0.00329c-0.03715,0.0066 -0.07011,0.02168 -0.10516,0.03534c-0.02355,0.00943 -0.04866,0.01131 -0.07116,0.02404c-0.00418,0.00235 -0.00628,0.00659 -0.01046,0.00895c-0.0293,0.01743 -0.0518,0.04241 -0.07691,0.06502c-0.02459,0.02215 -0.0518,0.04147 -0.07011,0.06739c-0.00262,0.00377 -0.00733,0.00565 -0.01047,0.00989c-0.32072,0.46414 -0.71992,0.72 -1.1254,0.72s-0.80469,-0.25586 -1.12541,-0.72c-0.15277,-0.22099 -0.47559,-0.28837 -0.72045,-0.15125c-0.24538,0.13759 -0.32072,0.42785 -0.16794,0.64931c0.51849,0.7511 1.23371,1.16482 2.0138,1.16482c0.57657,0 1.11703,-0.22712 1.5696,-0.64838c0.45257,0.42126 0.99304,0.64838 1.5696,0.64838s1.11704,-0.22712 1.56961,-0.64838c0.45257,0.42126 0.99303,0.64838 1.5696,0.64838s1.11703,-0.22712 1.5696,-0.64838c0.45257,0.42126 0.99304,0.64838 1.56961,0.64838c0.78009,0 1.4953,-0.41372 2.0138,-1.16482c0.15382,-0.22099 0.079,-0.51172 -0.16638,-0.64931z"/>
  </g>
   <g stroke="null" id="svg_24">
   <path stroke="null" id="svg_22" d="m51.58813,33.58945c-2.30261,-1.85655 -5.27439,-2.70848 -8.37541,-2.39937c-4.92907,0.49241 -8.89755,4.07355 -9.43593,8.51606c-0.36571,3.019 0.81254,5.94941 3.23286,8.03967c1.56124,1.34812 2.45696,3.20372 2.45696,5.09041l0,0.91084l0,0.94241l0,0.9424l0,1.88482l1.308,0l1.5696,1.88481l3.66241,0l1.5696,-1.88481l1.308,0l0,-1.88482l0,-0.9424l0,-0.94241l0,-0.4712c0,-1.98754 0.9742,-3.90628 2.67251,-5.26476c2.29162,-1.83251 3.6059,-4.46512 3.6059,-7.22214c0,-2.74428 -1.30277,-5.36889 -3.5745,-7.19951zm-6.10471,24.86917l-2.61601,0l-0.7848,-0.9424l4.18561,0l-0.7848,0.9424zm2.3544,-1.88481l-7.32481,0l0,-0.94241l7.32481,0l0,0.94241zm0,-1.88481l-7.32481,0l0,-0.94241l2.0928,0l3.13921,0l2.0928,0l0,0.94241zm-4.18561,-5.18324l1.04641,0l0,3.29842l-1.04641,0l0,-3.29842zm7.20971,-2.20005c-1.78778,1.42963 -2.86662,3.41245 -3.0084,5.49847l-2.10903,0l0,-3.76963c0,-3.47889 0.82143,-4.71203 3.13921,-4.71203c0.28881,0 0.5232,-0.21063 0.5232,-0.4712s-0.23439,-0.47121 -0.5232,-0.47121c-3.85599,0 -4.15892,3.23764 -4.18299,5.18324l-1.05216,0c-0.02407,-1.9456 -0.327,-5.18324 -4.18299,-5.18324c-0.28881,0 -0.5232,0.21063 -0.5232,0.47121s0.23439,0.4712 0.5232,0.4712c2.31778,0 3.1392,1.23314 3.1392,4.71203l0,3.76963l-2.0928,0c-0.00994,-2.13078 -1.02181,-4.22104 -2.77924,-5.73879c-2.18384,-1.88622 -3.24699,-4.53109 -2.91685,-7.257c0.48658,-4.00711 4.06632,-7.23721 8.51248,-7.68156c2.79965,-0.27895 5.48367,0.48911 7.56183,2.16424c2.0499,1.65298 3.22605,4.02125 3.22605,6.49742c0,2.48843 -1.18609,4.86377 -3.25431,6.51722z"/>
     <path stroke="null" id="svg_23" d="m50.73008,41.09478c-0.24486,-0.13665 -0.56768,-0.06974 -0.72045,0.15125c-0.32072,0.46414 -0.71993,0.72 -1.12541,0.72s-0.80468,-0.25586 -1.1254,-0.72c-0.00262,-0.00377 -0.00733,-0.00565 -0.00994,-0.00989c-0.01936,-0.02639 -0.04761,-0.04665 -0.07325,-0.06974c-0.02459,-0.02168 -0.04552,-0.04571 -0.07377,-0.06267c-0.00471,-0.00283 -0.0068,-0.00707 -0.01151,-0.00943c-0.02302,-0.01272 -0.04918,-0.01507 -0.07325,-0.0245c-0.03453,-0.01319 -0.06697,-0.02827 -0.10359,-0.0344c-0.03297,-0.00565 -0.06541,-0.00329 -0.09837,-0.00329c-0.034,0 -0.06697,-0.00283 -0.10097,0.00329c-0.03715,0.0066 -0.07011,0.02168 -0.10517,0.03534c-0.02354,0.00943 -0.04866,0.01131 -0.07115,0.02404c-0.00419,0.00235 -0.00628,0.00659 -0.01047,0.00895c-0.0293,0.01743 -0.05179,0.04241 -0.07691,0.06502c-0.02459,0.02215 -0.05179,0.04147 -0.07011,0.06739c-0.00261,0.00377 -0.00732,0.00565 -0.01046,0.00989c-0.32072,0.46414 -0.71993,0.72 -1.12541,0.72s-0.80468,-0.25586 -1.1254,-0.72c-0.00262,-0.00377 -0.00733,-0.00565 -0.00994,-0.00989c-0.01936,-0.02639 -0.04761,-0.04665 -0.07325,-0.06974c-0.02459,-0.02168 -0.04552,-0.04571 -0.07377,-0.06267c-0.00471,-0.00283 -0.0068,-0.00707 -0.01151,-0.00943c-0.02302,-0.01272 -0.04918,-0.01507 -0.07325,-0.0245c-0.03453,-0.01319 -0.06697,-0.02827 -0.10359,-0.0344c-0.03297,-0.00565 -0.0654,-0.00329 -0.09837,-0.00329c-0.034,0 -0.06697,-0.00283 -0.10097,0.00329c-0.03715,0.0066 -0.07011,0.02168 -0.10517,0.03534c-0.02354,0.00943 -0.04865,0.01131 -0.07115,0.02404c-0.00419,0.00235 -0.00628,0.00659 -0.01047,0.00895c-0.0293,0.01743 -0.05179,0.04241 -0.07691,0.06502c-0.02459,0.02215 -0.05179,0.04147 -0.07011,0.06739c-0.00261,0.00377 -0.00732,0.00565 -0.01046,0.00989c-0.32072,0.46414 -0.71992,0.72 -1.12541,0.72s-0.80468,-0.25586 -1.1254,-0.72c-0.00262,-0.00377 -0.00733,-0.00565 -0.00994,-0.00989c-0.01936,-0.02639 -0.04761,-0.04665 -0.07325,-0.06974c-0.02459,-0.02168 -0.04552,-0.04571 -0.07377,-0.06267c-0.00471,-0.00283 -0.0068,-0.00707 -0.01151,-0.00943c-0.02302,-0.01272 -0.04918,-0.01507 -0.07325,-0.0245c-0.03453,-0.01319 -0.06697,-0.02827 -0.10359,-0.0344c-0.03296,-0.00565 -0.0654,-0.00329 -0.09836,-0.00329c-0.03401,0 -0.06697,-0.00283 -0.10098,0.00329c-0.03715,0.0066 -0.07011,0.02168 -0.10517,0.03534c-0.02354,0.00943 -0.04865,0.01131 -0.07115,0.02404c-0.00419,0.00235 -0.00628,0.00659 -0.01047,0.00895c-0.02929,0.01743 -0.05179,0.04241 -0.07691,0.06502c-0.02459,0.02215 -0.05179,0.04147 -0.0701,0.06739c-0.00262,0.00377 -0.00733,0.00565 -0.01047,0.00989c-0.32072,0.46414 -0.71992,0.72 -1.1254,0.72s-0.80469,-0.25586 -1.12541,-0.72c-0.15277,-0.22099 -0.47559,-0.28837 -0.72045,-0.15125c-0.24538,0.13759 -0.32072,0.42785 -0.16794,0.64931c0.51849,0.7511 1.2337,1.16482 2.0138,1.16482c0.57656,0 1.11703,-0.22712 1.5696,-0.64838c0.45257,0.42126 0.99303,0.64838 1.5696,0.64838s1.11704,-0.22712 1.5696,-0.64838c0.45257,0.42126 0.99304,0.64838 1.56961,0.64838s1.11703,-0.22712 1.5696,-0.64838c0.45257,0.42126 0.99304,0.64838 1.5696,0.64838c0.7801,0 1.49531,-0.41372 2.0138,-1.16482c0.15383,-0.22099 0.07901,-0.51172 -0.16637,-0.64931z"/>
  </g>
 </g>
</svg>
