<svg width="200px" height="200px"
     xmlns="http://www.w3.org/2000/svg" viewBox="0 0 100 100">
  <path d="M80,5L20,5C11.716,5,5,11.716,5,20L5,80C5,88.284,11.716,95,20,95L80,95C88.284,95,95,88.284,95,80L95,20C95,11.716,88.284,5,80,5ZM87.5,80C87.5,84.135,84.135,87.5,80,87.5L20,87.5C15.865,87.5,12.5,84.135,12.5,80L12.5,20C12.5,15.865,15.865,12.5,20,12.5L80,12.5C84.135,12.5,87.5,15.865,87.5,20L87.5,80Z" stroke="none"></path>
  <path
    d="M50,27.5C37.593,27.5,27.5,37.593,27.5,50S37.593,72.5,50,72.5S72.5,62.407,72.5,50S62.407,27.5,50,27.5ZM50,67.5C40.351,67.5,32.5,59.649,32.5,50S40.351,32.5,50,32.5S67.5,40.351,67.5,50S59.649,67.5,50,67.5Z"
    stroke="none">

  </path>
  <path d="M47.5,77.5L52.5,77.5L52.5,82.5L47.5,82.5L47.5,77.5Z" stroke="none"></path></svg>
