<svg width="100px" height="100px" version="1.1" xmlns="http://www.w3.org/2000/svg" xmlns:xlink="http://www.w3.org/1999/xlink" x="0px" y="0px" viewBox="0 0 1000 1000" enable-background="new 0 0 1000 1000" xml:space="preserve">
<metadata> Svg Vector Icons : http://www.onlinewebfonts.com/icon </metadata>
  <g><g transform="translate(0.000000,512.000000) scale(0.100000,-0.100000)"><path d="M4771.9,4990.5c-414.1-74.8-745.8-256.9-1048.7-577.1c-425.6-448.6-598.2-1064-469.7-1673.7c15.3-69,38.3-159.1,53.7-201.3c15.3-42.2,425.6-874.2,910.7-1850.1l881.9-1771.5l839.7,1675.6c464,922.2,857,1712,878.1,1754.2c115,251.2,166.8,488.9,166.8,776.5c0,506.1-168.7,937.5-510,1299.8C6037.2,4886.9,5393,5103.6,4771.9,4990.5z M5343.2,3995.4c450.5-118.9,757.3-586.7,680.6-1041c-76.7-462-458.2-789.9-918.3-789.9c-80.5,0-189.8,11.5-243.5,26.8c-473.5,126.5-776.5,613.5-676.8,1089c70.9,335.5,341.3,625,671,713.2C4994.2,4030,5203.2,4031.9,5343.2,3995.4z"/><path d="M3052.1,1760c-291.4-61.3-676.8-199.4-993.1-354.7c-161-78.6-297.2-155.3-302.9-166.8c-11.5-32.6-197.5-1497.3-189.8-1505c1.9-3.8,80.5,26.9,174.5,65.2c506.1,209,954.8,318.3,1497.3,358.5l302.9,23l38.3,584.7l40.3,584.7L3508.4,1576l-109.3,224.3l-82.4-1.9C3270.7,1798.3,3151.8,1781.1,3052.1,1760z"/><path d="M6687.1,713.2c-5.8-293.3-17.2-676.8-23-851.2l-13.4-320.2l74.8-9.6c172.5-26.9,876.2-36.4,1158-15.3c492.7,34.5,747.7,65.2,747.7,86.3c0,40.3-136.1,1518.4-145.7,1579.8l-9.6,61.4h-887.7h-887.6L6687.1,713.2z"/><path d="M6125.4,429.5l-350.8-697.9l72.9-21.1c38.3-9.6,170.6-40.3,291.4-67.1c120.8-26.8,239.6-53.7,260.7-57.5c38.3-7.7,42.2,0,53.7,111.2c13.4,141.9,38.3,1432.1,28.8,1432.1C6478.2,1129.3,6317.1,814.8,6125.4,429.5z"/><path d="M3794.1,851.3c-7.7-63.3-17.3-197.5-23-297.2c-5.8-99.7-15.3-230.1-21.1-289.5l-11.5-105.4l233.9-24.9c128.5-13.4,237.7-19.2,243.5-15.3c3.8,5.8-86.3,197.5-201.3,427.5l-209,419.9L3794.1,851.3z"/><path d="M3157.6-51.7c-212.8-24.9-488.9-70.9-488.9-82.4c0-5.8,84.4-36.4,187.9-65.2c101.6-30.7,287.6-92,412.2-136.1c258.8-95.9,235.8-109.3,249.2,147.6l7.7,147.6l-155.3-1.9C3284.1-44.1,3190.2-49.8,3157.6-51.7z"/><path d="M3723.1-141.8c0-46-5.7-147.6-11.5-226.2l-11.5-141.9l101.6-51.8c174.5-90.1,314.4-212.8,370-324c65.2-132.3,65.2-260.7-1.9-552.1c-76.7-337.4-90.1-308.7,153.4-348.9c264.6-46,473.5-94,914.5-212.8c324-88.2,356.6-92,373.9-63.3c90.1,151.5,164.9,232,278,301c149.5,88.2,283.8,130.4,425.6,132.3l105.4,1.9l13.4,487c7.7,268.4,7.7,494.6,1.9,506.1c-5.8,9.6-30.7,19.2-53.7,19.2c-34.5,0-433.3,88.2-649.9,143.8c-51.8,13.4-53.7,7.7-343.2-569.4l-291.4-580.9l-373.8,749.6l-375.8,751.5l-230.1,30.7c-128.5,17.2-268.4,30.7-312.5,30.7h-82.4V-141.8z"/><path d="M2026.4-310.5c-51.8-21.1-187.9-76.7-299.1-124.6l-201.3-86.3l-111.2-864.7c-59.4-473.5-105.4-866.6-101.6-872.3c5.8-3.8,59.4,17.3,120.8,47.9c513.8,258.8,1230.8,456.3,1796.4,494.6c101.6,7.7,186,17.2,186,24.9c0,5.7,13.4,193.6,28.8,414.1c15.3,222.4,28.8,446.7,28.8,502.3v97.8l-195.6,76.7c-109.3,42.2-283.7,103.5-389.2,138c-197.5,63.3-711.3,193.7-745.8,189.8C2131.9-274.1,2080.1-291.4,2026.4-310.5z"/><path d="M7931.4-686.3c-383.4-24.9-914.5-23-1161.8,5.8l-107.4,11.5l-11.5-147.6c-7.7-82.4-13.4-301-13.4-485.1v-335.5l600.1,13.4c475.5,11.5,615.4,7.7,684.4-11.5l86.3-26.8l23-122.7c53.7-281.8,116.9-385.4,260.7-423.7c44.1-11.5,99.7-38.3,122.7-59.4c42.2-40.3,44.1-40.3,207.1-5.8c109.3,23,163,44.1,163,61.3c0,46-134.2,1432.1-145.7,1497.3l-9.6,61.4l-147.6-1.9C8401.1-657.6,8153.8-671,7931.4-686.3z"/><path d="M3677.1-899.1c-21.1-249.2-53.7-793.7-46-801.4c3.8-3.8,55.6-11.5,115-19.2l107.4-11.5l61.4,255c78.6,322.1,80.5,433.3,13.4,523.4c-28.8,36.4-93.9,92-145.7,122.7l-93.9,59.4L3677.1-899.1z"/><path d="M2975.4-1947.8c-333.6-47.9-644.2-126.5-987.3-255c-201.3-72.9-621.2-264.6-676.8-306.7c-40.3-32.6-51.8-94-186-1144.6c-78.6-611.6-143.8-1117.7-143.8-1125.4c0-7.7,140,78.6,312.5,191.7c348.9,232,626.9,379.6,960.5,510c268.4,107.4,636.5,210.9,858.9,243.5c88.2,13.4,161,24.9,164.9,26.8c3.8,3.8,118.9,1754.2,118.9,1836.7c0,51.8-1.9,51.8-118.9,49.9C3211.3-1922.9,3075.1-1934.4,2975.4-1947.8z"/><path d="M3608.1-1951.7c0-19.2-26.8-427.5-57.5-906.8c-30.7-479.3-57.5-881.9-57.5-893.4c0-13.4,97.8-24.9,283.7-32.6c471.6-19.2,881.9-107.4,1748.5-375.8c659.5-203.2,807.1-241.6,826.3-209c9.6,13.4,17.3,78.6,17.3,141.9v117l-118.9,34.5c-170.6,47.9-304.8,111.2-364.3,172.6c-63.3,61.3-70.9,149.5-24.9,278c59.4,164.9,46,205.2-118.9,362.4l-149.5,141.9l-325.9,3.8c-387.3,3.8-439,17.3-742,187.9c-494.6,278-674.8,504.2-690.2,866.6c-3.8,63.3-13.4,120.8-24.9,128.5c-9.6,7.7-59.4,15.3-109.3,15.3C3625.4-1919.1,3608.1-1924.8,3608.1-1951.7z"/><path d="M4074-2070.5c21.1-245.4,141.9-396.9,467.8-590.5c331.7-193.6,364.3-205.1,663.3-212.8l262.6-7.7v113.1c0,63.3,13.4,193.6,30.7,291.4c17.3,97.8,26.8,180.2,23,184c-32.6,34.5-1054.4,276.1-1374.6,325.9l-84.4,13.4L4074-2070.5z"/><path d="M8650.3-2488.5c-130.4-13.4-153.4-23-153.4-69c0-24.9-17.3-113.1-40.3-195.6c-34.5-138-36.4-166.8-15.4-318.3c42.2-312.5-11.5-352.8-502.3-381.5c-228.2-15.3-329.8-28.8-389.2-55.6c-118.8-51.7-314.4-256.9-423.7-442.9c-63.3-107.3-116.9-174.5-161-199.4c-69-40.2-191.7-49.8-322.1-24.9l-82.4,13.4v-141.9v-141.9l140-23c97.8-19.2,454.4-26.9,1228.9-32.6l1089-7.7l-11.5,101.6c-5.8,55.6-46,485.1-88.2,954.8c-42.2,469.7-82.4,881.9-88.2,916.4C8821-2471.2,8821-2471.2,8650.3-2488.5z"/></g></g>
</svg>
