<svg width="200px" height="200px"
     xmlns="http://www.w3.org/2000/svg" viewBox="1 5 30 23">
  <g >
    <path fill="#FFFFFF" d="M4.486 21.505 25.271 7.613l2.223 3.326L6.709 24.83z"/>
    <path fill="#0000" d="m25.271 7.613 1.663-1.111 2.223 3.325-1.663 1.112zM2.824 22.617l1.662-1.112 2.223 3.326-1.663 1.111z"/>
    <path style="line-height:normal;text-indent:0;text-align:start;text-decoration-line:none;text-decoration-style:solid;text-decoration-color:#000;text-transform:none;block-progression:tb;isolation:auto;mix-blend-mode:normal"  d="M148.617 1110.656a.5.5 0 0 0-.138.694l2.223 3.326a.5.5 0 0 0 .694.137l20.784-13.892a.5.5 0 0 0 .138-.693l-2.223-3.326a.5.5 0 0 0-.693-.138l-20.785 13.892zm.971.554 19.954-13.337 1.667 2.495-19.953 13.336-1.668-2.494z" color="#000" font-family="sans-serif" font-weight="400" overflow="visible" transform="translate(-144.402 -1089.568)"/>
    <path style="line-height:normal;text-indent:0;text-align:start;text-decoration-line:none;text-decoration-style:solid;text-decoration-color:#000;text-transform:none;block-progression:tb;isolation:auto;mix-blend-mode:normal"   d="M169.402 1096.764a.5.5 0 0 0-.138.694l2.223 3.325a.5.5 0 0 0 .693.138l1.663-1.111a.5.5 0 0 0 .138-.694l-2.223-3.325a.5.5 0 0 0-.693-.138l-1.663 1.111zm.971.554.832-.556 1.667 2.494-.832.556-1.667-2.494zm-23.419 14.45a.5.5 0 0 0-.138.693l2.223 3.326a.5.5 0 0 0 .694.138l1.663-1.112a.5.5 0 0 0 .137-.693l-2.222-3.326a.5.5 0 0 0-.694-.138l-1.663 1.112zm.972.553.831-.555 1.667 2.494-.831.556-1.667-2.495z" color="#000" font-family="sans-serif" font-weight="400" overflow="visible" transform="translate(-144.402 -1089.568)"/>
    <path style="line-height:normal;text-indent:0;text-align:start;text-decoration-line:none;text-decoration-style:solid;text-decoration-color:#000;text-transform:none;block-progression:tb;isolation:auto;mix-blend-mode:normal"  fill-rule="evenodd" d="M147.783 1112.508a.5.5 0 0 0-.267.088l-.832.555a.5.5 0 1 0 .556.831l.83-.554a.5.5 0 0 0-.287-.92zm1.112 1.662a.5.5 0 0 0-.268.088l-.832.557a.5.5 0 1 0 .557.83l.83-.555a.5.5 0 0 0-.287-.92zm23.818-18.324a.5.5 0 0 0-.268.088l-.832.554a.5.5 0 1 0 .557.832l.83-.556a.5.5 0 0 0-.287-.918zm1.111 1.662a.5.5 0 0 0-.267.088l-.832.555a.5.5 0 1 0 .556.831l.832-.554a.5.5 0 0 0-.289-.92z" color="#000" font-family="sans-serif" font-weight="400" overflow="visible" transform="translate(-144.402 -1089.568)"/>
  </g>
</svg>
